<svg><defs>
<svg id="admin_dashboard" viewBox="0 0 24 24" height="24" width="24">
<path d="M12.984 3h8.016v6h-8.016v-6zM12.984 21v-9.984h8.016v9.984h-8.016zM3 21v-6h8.016v6h-8.016zM3 12.984v-9.984h8.016v9.984h-8.016z"></path>
</svg>
<svg id="menu_access" width="512" height="512" viewBox="0 0 512 512">
<path d="M32 96h448v96h-448zM32 224h448v96h-448zM32 352h448v96h-448z"></path>
</svg>
<svg id="location" width="512" height="512" viewBox="0 0 32 32">
<path d="M16 0c-5.523 0-10 4.477-10 10 0 10 10 22 10 22s10-12 10-22c0-5.523-4.477-10-10-10zM16 16c-3.314 0-6-2.686-6-6s2.686-6 6-6 6 2.686 6 6-2.686 6-6 6z"></path>
</svg>
<svg id="package_status" width="512" height="512" viewBox="0 0 32 32">
<path d="M2.005 22.825l13.039 6.169v-13.8l-13.039-5.52v13.151zM6.006 14.791l5.026 2.337-0.029 1.842-5.025-2.336 0.028-1.843zM16 15.194v13.8l12.994-6.169v-13.151l-12.994 5.52zM15.453 3.006l-13.363 5.757 13.375 5.712 13.514-5.725-13.526-5.744z"></path>
</svg>
<svg id="vechile_activity" width="512" height="512" viewBox="0 0 32 32">
<path d="M26.969 13c-0.553 0-1 0-1 0h-1.979l-0.013 1.256c0.598 0.341 0.992 0.989 0.992 1.744l0.042 6.938h-18.98v-6.938c0-0.738 0.404-1.376 1-1.723v-1.277h-2c0 0-0.448 0-1 0-0.553 0-1-0.448-1-1v-1c0-0.553 0.447-1 1-1 0.552 0 1 0 1 0v2h2v-3c0-1.104 0.896-2 2-2h13c1.104 0 2 0.896 2 2l-0.031 3h1.969v-2c0 0 0.447 0 1 0 0.552 0 1 0.447 1 1v1c0 0.552-0.448 1-1 1zM12.031 22h7v-1h-7v1zM12.031 20h7v-1h-7v1zM12.031 18h7v-1h-7v1zM8.031 21c0 0.552 0.447 1 1 1h1c0.552 0 1-0.448 1-1 0-0.553-0.448-1-1-1h-1c-0.552 0-1 0.447-1 1zM22.031 10c0-0.553-0.447-1-1-1h-11c-0.553 0-1 0.447-1 1v5h13v-5zM22.031 20h-1c-0.553 0-1 0.447-1 1 0 0.552 0.447 1 1 1h1c0.552 0 1-0.448 1-1 0-0.553-0.448-1-1-1zM23.031 6h-15c-1.104 0-2 0.896-2 2v-5c0-0.553 0.447-1 1-1h17c0.552 0 1 0.447 1 1v5c0-1.104-0.895-2-2-2zM25.031 24.938c0 0.552-0.448 1-1 1h-17c-0.553 0-1-0.448-1-1 0-0.553 0-1 0-1h19c0 0 0 0.447 0 1zM11.031 29c0 0.552-0.448 1-1 1h-1c-0.553 0-1-0.448-1-1v-2h3v2zM23.031 29c0 0.552-0.448 1-1 1h-1c-0.553 0-1-0.448-1-1v-2h3v2z"></path>
</svg>
<svg id="trip_activity" width="512" height="512" viewBox="0 0 32 32">
<path d="M26 22.563s0-9.563 0-12.563-3-6-6-6c-2 0-2 0-2 0v-4l-6 6 6 6v-4s1 0 2 0 2 1 2 2 0 12.563 0 12.563c-1.188 0.688-2 1.969-2 3.438 0 2.219 1.781 4 4 4s4-1.781 4-4c0-1.469-0.813-2.75-2-3.438zM24 28c-1.094 0-2-0.906-2-2s0.906-2 2-2 2 0.906 2 2-0.906 2-2 2zM10 24s-1 0-2 0-2-1-2-2 0-12.563 0-12.563c1.188-0.688 2-1.969 2-3.438 0-2.219-1.781-4-4-4s-4 1.781-4 4c0 1.469 0.813 2.75 2 3.438 0 0 0 9.563 0 12.563s3 6 6 6c2 0 2 0 2 0v4l6-6-6-6v4zM4 8c-1.094 0-2-0.906-2-2s0.906-2 2-2 2 0.906 2 2-0.906 2-2 2z"></path>
</svg>
<!-- <svg id="density_map" width="512" height="512" viewBox="0 0 32 32">
<path d="M2 0h12v2h-12zM18 0h12v2h-12zM29.75 10h-1.75v-8h-8v8h-8v-8h-8v8h-1.75c-1.238 0-2.25 1.012-2.25 2.25v17.5c0 1.238 1.012 2.25 2.25 2.25h9.5c1.238 0 2.25-1.012 2.25-2.25v-11.75h4v11.75c0 1.238 1.012 2.25 2.25 2.25h9.5c1.238 0 2.25-1.012 2.25-2.25v-17.5c0-1.238-1.012-2.25-2.25-2.25zM10.875 30h-7.75c-0.619 0-1.125-0.45-1.125-1s0.506-1 1.125-1h7.75c0.619 0 1.125 0.45 1.125 1s-0.506 1-1.125 1zM17 16h-2c-0.55 0-1-0.45-1-1s0.45-1 1-1h2c0.55 0 1 0.45 1 1s-0.45 1-1 1zM28.875 30h-7.75c-0.619 0-1.125-0.45-1.125-1s0.506-1 1.125-1h7.75c0.619 0 1.125 0.45 1.125 1s-0.506 1-1.125 1z"></path>
</svg> -->
<svg id="menu_lock" width="512" height="512" viewBox="0 0 32 32">
<path d="M22 14c-1 0-2 0-2 0s0-2 0-6-4-8-8-8-8 4-8 8 0 6 0 6-1 0-2 0-2 1-2 2 0 13 0 14 1 2 2 2 19 0 20 0 2-1 2-2 0-13 0-14-1-2-2-2zM16 18h-12v2h12v2h-12v2h12v2h-12v2h12v2h-14v-14h14v2zM16 14h-8s0-4 0-6 2-4 4-4 4 2 4 4 0 6 0 6z"></path>
</svg>
<svg id="profile" width="512" height="512" viewBox="0 0 32 32">
<path d="M10 6c0-3.314 2.686-6 6-6s6 2.686 6 6c0 3.314-2.686 6-6 6s-6-2.686-6-6zM24.002 14h-1.107l-6.222 12.633 2.327-11.633-3-3-3 3 2.327 11.633-6.222-12.633h-1.107c-3.998 0-3.998 2.687-3.998 6v10h24v-10c0-3.313 0-6-3.998-6z"></path>
</svg>
<svg id="branches" width="512" height="512" viewBox="0 0 32 32">
<path d="M17.997 9.764c0 0.798-0.044 1.494 0.015 2.191 0.087 1.073 0.943 1.828 2.060 1.842 1.306 0.029 2.611 0 3.917 0.014 3.438 0.014 5.977 2.524 6.020 5.991 0.015 1.306 0 2.611 0 3.902 1.668 0.479 1.987 0.914 1.987 2.626 0 0.508 0.014 1.015-0.015 1.523-0.073 1.204-0.798 1.915-2.002 1.929-1.335 0.015-2.655 0.029-3.989 0-1.233-0.029-1.944-0.769-1.958-2.016-0.015-0.508 0-1.015 0-1.523 0-1.451 0.493-2.089 1.915-2.481 0-1.494 0.073-2.974-0.029-4.468-0.058-0.928-0.856-1.48-1.915-1.523-0.725-0.029-1.451 0.015-2.176-0.015-1.262-0.044-2.539-0.102-3.83-0.16 0 1.973 0 4.047 0 6.107 1.697 0.508 1.987 0.885 1.987 2.669 0 0.479 0.015 0.972 0 1.451-0.029 1.146-0.769 1.915-1.915 1.944-1.378 0.029-2.756 0.029-4.134 0-1.19-0.029-1.9-0.798-1.929-2.002-0.014-0.435 0-0.87 0-1.306 0-1.668 0.406-2.234 1.987-2.756 0-2.060 0-4.134 0-6.064-2.060 0.044-4.091 0.058-6.122 0.131-1.030 0.044-1.77 0.653-1.813 1.625-0.087 1.436-0.014 2.887-0.014 4.323 1.61 0.406 1.944 0.841 1.944 2.553 0 0.508 0.014 1.015 0 1.523-0.029 1.175-0.711 1.944-1.871 1.973-1.407 0.044-2.8 0.044-4.207 0-1.088-0.029-1.799-0.74-1.871-1.828-0.058-0.769-0.044-1.552 0-2.321 0.073-1.102 0.58-1.581 1.973-1.9 0-1.219 0-2.437 0-3.67 0-3.743 2.481-6.238 6.194-6.238 1.204 0 2.423 0.014 3.627 0 1.436-0.014 2.191-0.769 2.205-2.205 0-0.58 0-1.161 0-1.784-0.218-0.029-0.406-0.058-0.595-0.058-1.117 0-2.22 0-3.337 0-1.32 0-2.045-0.682-2.060-1.973-0.029-1.335-0.029-2.655 0-3.989 0.014-1.175 0.783-1.987 1.944-2.002 4.033-0.029 8.080-0.029 12.113 0 1.146 0.014 1.828 0.74 1.857 1.9 0.044 1.407 0.044 2.8 0 4.207-0.029 1.146-0.798 1.842-1.973 1.857-1.291 0.014-2.597 0-3.989 0z"></path>
</svg>
<!-- <svg id="consumers" width="512" height="512" viewBox="0 0 32 32">
<path d="M14.318 9.608l14.619-4.389-0.192-0.64c-0.21-0.704-0.96-1.106-1.664-0.896l-12.059 3.621c-0.704 0.21-1.106 0.96-0.896 1.664l0.192 0.64z"></path>
<path d="M31.287 13.832c-0.567-0.064-1.573 0.503-1.573 0.503l-2.779 1.326c-0.485 0.283-0.96 0.558-0.997 0.567-0.594 0.183-0.96 0.64-0.96 0.64 0 0.75-0.119 1.353-0.777 1.966-0.302 0.283-0.75 0.485-1.216 0.64-1.024 0.329-1.984 0.521-3.913 0.485-0.914-0.018-1.765-0.265-4.389-0.485-0.603-0.055-0.987-0.037-0.933-0.146 0.174-0.32 5.486 0.229 6.117 0.192 2.039-0.11 3.648-0.64 4.059-1.143 0.43-0.512 0.521-1.134 0.293-1.509-0.265-0.439-0.887-0.667-2.853-0.759-0.987-0.046-1.874-0.137-2.761-0.137-0.329 0-0.722-0.082-1.17-0.238-2.889-1.253-6.61-2.597-9.426-0.43-0.219 0.174-0.421 0.357-0.613 0.558s-0.366 0.421-0.53 0.649c-0.229 0.238-0.521 0.521-0.878 0.85-0.21 0.192-0.53 0.448-0.923 0.731l4.187 5.979c0.265-0.201 0.53-0.393 0.795-0.585l0.64-0.457c0.558-0.393 1.216-0.603 1.893-0.603h4.882l1.189-0.128c0.841-0.091 1.673-0.283 2.469-0.576l0.887-0.32 2.496-0.896c0.009 0 0.018-0.009 0.027-0.009 1.435-0.521 2.77-1.289 3.959-2.258l0.832-0.686c0.293-0.293 1.143-0.978 1.682-1.408 0.384-0.302 0.686-0.695 0.869-1.143 0.055-0.137 0.091-0.265 0.091-0.347 0.018-0.32-0.11-0.759-0.677-0.823z"></path>
<path d="M0.055 20.159l5.778 8.503 3.593-3.063-5.513-7.881-3.858 2.441zM6.638 24.996c0.439 0 0.795 0.357 0.795 0.795s-0.357 0.795-0.795 0.795c-0.439 0-0.795-0.357-0.795-0.795s0.357-0.795 0.795-0.795z"></path>
<path d="M15.662 14.088c0.777 0.274 1.499 0.576 2.094 0.832 0.448 0.146 0.713 0.183 0.859 0.183 0.585 0 1.152 0.037 1.755 0.073 0.338 0.018 0.686 0.046 1.042 0.064 0.073 0 0.146 0.009 0.219 0.009l8.183-2.45c0.704-0.21 1.106-0.96 0.896-1.664l-1.362-4.535-14.619 4.389 0.933 3.099zM25.957 10.486c0.137-0.046 0.283-0.046 0.421-0.018-0.082-0.677 0.338-1.326 1.006-1.527 0.759-0.229 1.554 0.201 1.774 0.96 0.229 0.759-0.201 1.554-0.96 1.774-0.393 0.119-0.795 0.055-1.125-0.128-0.073 0.302-0.293 0.558-0.613 0.649-0.466 0.137-0.969-0.128-1.106-0.594-0.137-0.485 0.137-0.978 0.603-1.115z"></path>
</svg> -->
<svg id="consumers" width="512" height="512" viewBox="0 0 32 32">
<path d="M18 22.082v-1.649c2.203-1.241 4-4.337 4-7.432 0-4.971 0-9-6-9s-6 4.029-6 9c0 3.096 1.797 6.191 4 7.432v1.649c-6.784 0.555-12 3.888-12 7.918h28c0-4.030-5.216-7.364-12-7.918z"></path>
</svg>
<svg id="masterdata" width="512" height="512" viewBox="0 0 32 32">
<path d="M12 30c-6.626 0-12-1.793-12-4 0-1.207 0-2.527 0-4 0-0.348 0.174-0.678 0.424-1 1.338 1.723 5.99 3 11.576 3s10.238-1.277 11.576-3c0.25 0.322 0.424 0.652 0.424 1 0 1.158 0 2.387 0 4 0 2.207-5.375 4-12 4zM12 22c-6.626 0-12-1.793-12-4 0-1.208 0-2.526 0-4 0-0.212 0.080-0.418 0.188-0.622v0c0.061-0.128 0.141-0.254 0.236-0.378 1.338 1.722 5.99 3 11.576 3s10.238-1.278 11.576-3c0.096 0.124 0.176 0.25 0.236 0.378v0c0.107 0.204 0.188 0.41 0.188 0.622 0 1.158 0 2.386 0 4 0 2.207-5.375 4-12 4zM12 14c-6.626 0-12-1.792-12-4 0-0.632 0-1.3 0-2 0-0.636 0-1.296 0-2 0-2.208 5.374-4 12-4s12 1.792 12 4c0 0.624 0 1.286 0 2 0 0.612 0 1.258 0 2 0 2.208-5.375 4-12 4zM12 4c-4.418 0-8 0.894-8 2s3.582 2 8 2 8-0.894 8-2-3.582-2-8-2z"></path>
</svg>
<svg id="settings" width="512" height="512" viewBox="0 0 32 32">
<path d="M13.998 10.938c-2.794 0-5.061 2.267-5.061 5.063 0 2.793 2.267 5.064 5.061 5.064s5.045-2.271 5.045-5.064c-0-2.796-2.25-5.063-5.045-5.063zM24.145 18.908l-0.912 2.197 1.842 3.617-2.256 2.256-3.701-1.748-2.197 0.902-1.115 3.414-0.143 0.453h-3.188l-1.38-3.854-2.197-0.906-3.622 1.834-2.255-2.254 1.746-3.703-0.905-2.195-3.86-1.26v-3.187l3.856-1.382 0.905-2.193-1.622-3.202-0.214-0.42 2.252-2.252 3.706 1.745 2.194-0.907 1.114-3.412 0.144-0.452h3.188l1.381 3.858 2.191 0.907 3.627-1.838 2.254 2.252-1.746 3.7 0.902 2.198 3.867 1.258v3.186l-3.855 1.387z"></path>
</svg>
<svg id="location" width="512" height="512" viewBox="0 0 32 32">
<path d="M16 0c-5.523 0-10 4.477-10 10 0 10 10 22 10 22s10-12 10-22c0-5.523-4.477-10-10-10zM16 16.125c-3.383 0-6.125-2.742-6.125-6.125s2.742-6.125 6.125-6.125 6.125 2.742 6.125 6.125-2.742 6.125-6.125 6.125zM12.125 10c0-2.14 1.735-3.875 3.875-3.875s3.875 1.735 3.875 3.875c0 2.14-1.735 3.875-3.875 3.875s-3.875-1.735-3.875-3.875z"></path>
</svg>
<svg id="vehicle_information" width="512" height="512" viewBox="0 0 32 32">
<path d="M24.832 11.445c-0.186-0.278-0.498-0.445-0.832-0.445h-1c-0.553 0-1 0.447-1 1v6c0 0.553 0.447 1 1 1h4c0.553 0 1-0.447 1-1v-1.5c0-0.197-0.059-0.391-0.168-0.555l-3-4.5zM27 18h-4v-6h1l3 4.5v1.5zM31.496 15.336l-4-6c-0.558-0.837-1.492-1.336-2.496-1.336h-4v-2c0-1.654-1.346-3-3-3h-15c-1.654 0-3 1.346-3 3v11c0 1.654 1.346 3 3 3v0 3c0 1.654 1.346 3 3 3h1.142c0.447 1.721 2 3 3.859 3 1.857 0 3.41-1.279 3.857-3h5.282c0.447 1.721 2 3 3.859 3 1.857 0 3.41-1.279 3.857-3h1.144c1.654 0 3-1.346 3-3v-6c0-0.594-0.174-1.17-0.504-1.664zM3 18c-0.552 0-1-0.447-1-1v-11c0-0.553 0.448-1 1-1h15c0.553 0 1 0.447 1 1v11c0 0.553-0.447 1-1 1h-15zM11.001 27c-1.105 0-2-0.896-2-2s0.895-2 2-2c1.104 0 2 0.896 2 2s-0.897 2-2 2zM24 27c-1.105 0-2-0.896-2-2s0.895-2 2-2c1.104 0 2 0.896 2 2s-0.896 2-2 2zM30 23c0 0.553-0.447 1-1 1h-1.143c-0.447-1.721-2-3-3.857-3-1.859 0-3.412 1.279-3.859 3h-5.282c-0.447-1.721-2-3-3.857-3-1.859 0-3.412 1.279-3.859 3h-1.143c-0.552 0-1-0.447-1-1v-3h13c1.654 0 3-1.346 3-3v-7h4c0.334 0 0.646 0.167 0.832 0.445l4 6c0.109 0.164 0.168 0.358 0.168 0.555v6z"></path>
</svg>
<svg id="density_map" width="512" height="512" viewBox="0 0 32 32">
<path d="M16 0c-8.837 0-16 7.163-16 16s7.163 16 16 16 16-7.163 16-16-7.163-16-16-16zM3 16c0-7.18 5.82-13 13-13 3.424 0 6.538 1.325 8.86 3.488l-12.86 5.512-5.512 12.86c-2.164-2.322-3.488-5.436-3.488-8.86zM18.286 18.286l-8.003 3.43 3.43-8.003 4.573 4.573zM16 29c-3.424 0-6.539-1.325-8.86-3.488l12.86-5.512 5.512-12.86c2.164 2.322 3.488 5.436 3.488 8.86 0 7.18-5.82 13-13 13z"></path>
</svg>
<svg id="user_management" width="512" height="512" viewBox="0 0 32 32">
<path d="M24 12h-20c-2.208 0-4 1.792-4 4v2c0 1.477 0.808 2.752 2 3.445v6.555h8v4h8v-4h8v-6.555c1.191-0.693 2-1.967 2-3.445v-2c0-2.208-1.793-4-4-4zM8 26h-4v-8h-2v-2c0-1.104 0.897-2 2-2h2.554c-0.344 0.59-0.554 1.268-0.554 2v4c0 1.477 0.808 2.752 2 3.445v2.555zM18 22v-4h-2v12h-4v-12h-2v4c-1.104 0-2-0.895-2-2v-4c0-1.104 0.896-2 2-2h8c1.105 0 2 0.896 2 2v4c0 1.105-0.895 2-2 2zM26 18h-2v8h-4v-2.555c1.191-0.693 2-1.967 2-3.445v-4c0-0.732-0.211-1.41-0.555-2h2.555c1.105 0 2 0.896 2 2v2zM9.49 9.918c1.1 1.266 2.702 2.082 4.51 2.082s3.41-0.816 4.51-2.082c0.682 1.236 1.98 2.082 3.49 2.082 2.207 0 4-1.792 4-4s-1.793-4-4-4c-0.801 0-1.543 0.24-2.168 0.646-0.617-2.66-2.986-4.646-5.832-4.646s-5.216 1.986-5.832 4.646c-0.626-0.406-1.368-0.647-2.168-0.647-2.208 0-4 1.792-4 4s1.792 4 4 4c1.51 0 2.808-0.846 3.49-2.082zM22 6c1.105 0 2 0.894 2 2s-0.895 2-2 2c-1.104 0-2-0.894-2-2s0.896-2 2-2zM14 2c2.207 0 4 1.792 4 4s-1.793 4-4 4c-2.208 0-4-1.792-4-4s1.792-4 4-4zM6 10c-1.104 0-2-0.894-2-2s0.896-2 2-2c1.106 0 2 0.894 2 2s-0.894 2-2 2z"></path>
</svg>
<!-- <svg id="BasicComponents" width="24" height="24" viewBox="0 0 40 32">
<title>BasicComponents</title>
<path d="M26 23l3 3 10-10-10-10-3 3 7 7z"></path>
<path d="M14 9l-3-3-10 10 10 10 3-3-7-7z"></path>
<path d="M21.916 4.704l2.171 0.592-6 22.001-2.171-0.592 6-22.001z"></path>
</svg> -->

<svg id="BasicComponents" viewBox="0 0 40 32">
<title>stackoverflow</title>
<path d="M32 20v12h-32v-12h4v8h24v-8zM6 22h20v4h-20zM6.473 17.671l0.866-3.905 19.526 4.328-0.866 3.905zM8.739 9.642l1.69-3.625 18.126 8.452-1.69 3.625zM30.991 11.296l-2.435 3.173-15.867-12.175 1.761-2.294h1.82z"></path>
</svg>
<svg version="1.1" id="accordian" x="0px" y="0px" width="400px" height="400px" viewBox="0 0 400 400" style="enable-background:new 0 0 400 400;" xml:space="preserve"> <g> <g> <path d="M199.995,0C89.716,0,0,89.72,0,200c0,110.279,89.716,200,199.995,200C310.277,400,400,310.279,400,200 C400,89.72,310.277,0,199.995,0z M199.995,373.77C104.182,373.77,26.23,295.816,26.23,200c0-95.817,77.951-173.77,173.765-173.77 c95.817,0,173.772,77.953,173.772,173.77C373.769,295.816,295.812,373.77,199.995,373.77z"/> <path d="M279.478,186.884h-66.363V120.52c0-7.243-5.872-13.115-13.115-13.115s-13.115,5.873-13.115,13.115v66.368h-66.361 c-7.242,0-13.115,5.873-13.115,13.115c0,7.243,5.873,13.115,13.115,13.115h66.358v66.362c0,7.242,5.872,13.114,13.115,13.114 c7.242,0,13.115-5.872,13.115-13.114v-66.365h66.367c7.241,0,13.114-5.873,13.114-13.115 C292.593,192.757,286.72,186.884,279.478,186.884z"/> </g> </g> <g> </g> <g> </g> <g> </g> <g> </g> <g> </g> <g> </g> <g> </g> <g> </g> <g> </g> <g> </g> <g> </g> <g> </g> <g> </g> <g> </g> <g> </g>
</svg>
<svg version="1.1" id="breadcrumb" x="0px" y="0px" viewBox="0 0 490.3 490.3" style="enable-background:new 0 0 490.3 490.3;" xml:space="preserve">
<g> <g> <path d="M0,121.05v248.2c0,34.2,27.9,62.1,62.1,62.1h200.6c34.2,0,62.1-27.9,62.1-62.1v-40.2c0-6.8-5.5-12.3-12.3-12.3 s-12.3,5.5-12.3,12.3v40.2c0,20.7-16.9,37.6-37.6,37.6H62.1c-20.7,0-37.6-16.9-37.6-37.6v-248.2c0-20.7,16.9-37.6,37.6-37.6h200.6 c20.7,0,37.6,16.9,37.6,37.6v40.2c0,6.8,5.5,12.3,12.3,12.3s12.3-5.5,12.3-12.3v-40.2c0-34.2-27.9-62.1-62.1-62.1H62.1 C27.9,58.95,0,86.75,0,121.05z"/> <path d="M385.4,337.65c2.4,2.4,5.5,3.6,8.7,3.6s6.3-1.2,8.7-3.6l83.9-83.9c4.8-4.8,4.8-12.5,0-17.3l-83.9-83.9 c-4.8-4.8-12.5-4.8-17.3,0s-4.8,12.5,0,17.3l63,63H218.6c-6.8,0-12.3,5.5-12.3,12.3c0,6.8,5.5,12.3,12.3,12.3h229.8l-63,63 C380.6,325.15,380.6,332.95,385.4,337.65z"/> </g> </g> <g> </g> <g> </g> <g> </g> <g> </g> <g> </g> <g> </g> <g> </g> <g> </g> <g> </g> <g> </g> <g> </g> <g> </g> <g> </g> <g> </g> <g> </g>
</svg>
<svg version="1.1" id="tabs" x="0px" y="0px" viewBox="0 0 16 16" style="enable-background:new 0 0 16 16;" xml:space="preserve">
<path d="M14,4V2H0v13h16V4H14z M9.8,2.7h3.4V4H9.8V2.7z M5.7,2.7H9V4H5.7V2.7z M15.3,14.3H0.7V2.7h4.2v2.1h10.5V14.3z"/>
</svg>
<svg height="569pt" id="toast" viewBox="-66 0 569 569.286" width="569pt" >
  <path d="m.109375 66.382812v493.132813c0 5.238281 4.246094 9.484375 9.484375 9.484375h360.367188c5.234374 0 9.480468-4.246094 9.480468-9.484375v-398.296875c0-.210938-.101562-.390625-.121094-.597656-.046874-.832032-.210937-1.652344-.484374-2.4375-.105469-.304688-.179688-.597656-.3125-.894532-.460938-1.03125-1.101563-1.972656-1.898438-2.777343l-94.832031-94.832031c-.804688-.800782-1.75-1.441407-2.789063-1.898438-.285156-.121094-.574218-.222656-.871094-.3125-.792968-.273438-1.617187-.4375-2.457031-.492188-.160156.027344-.347656-.074218-.546875-.074218h-265.535156c-5.238281 0-9.484375 4.242187-9.484375 9.480468zm346.957031 85.351563h-62.457031v-62.457031zm-327.992187-75.867187h246.570312v85.351562c0 5.234375 4.246094 9.480469 9.480469 9.480469h85.351562v379.335937h-341.402343zm0 0"/>
  <path d="m398.410156 493.132812v18.964844h28.449219c5.238281 0 9.484375-4.242187 9.484375-9.480468v-493.132813c0-5.238281-4.246094-9.484375-9.484375-9.484375h-360.367187c-5.238282 0-9.484376 4.246094-9.484376 9.484375v28.449219h18.96875v-18.96875h341.398438v474.167968zm0 0"/>
  <path d="m75.976562 189.667969h227.597657v18.964843h-227.597657zm0 0"/>
  <path d="m75.976562 132.765625h75.867188v18.96875h-75.867188zm0 0"/>
  <path d="m75.976562 246.566406h151.734376v18.96875h-151.734376zm0 0"/>
  <path d="m246.675781 246.566406h56.898438v18.96875h-56.898438zm0 0"/>
  <path d="m75.976562 303.464844h227.597657v18.96875h-227.597657zm0 0"/>
  <path d="m75.976562 417.265625h227.597657v18.96875h-227.597657zm0 0"/>
  <path d="m161.324219 360.367188h142.25v18.964843h-142.25zm0 0"/>
  <path d="m75.976562 360.367188h66.382813v18.964843h-66.382813zm0 0"/>
  <path d="m75.976562 474.167969h37.933594v18.964843h-37.933594zm0 0"/>
  <path d="m132.875 474.167969h170.699219v18.964843h-170.699219zm0 0"/>
</svg>
<svg height="480pt" id="calendar" viewBox="0 0 480 480" width="480pt"><path d="m399.832031 54.398438c-.0625-.277344-.230469-.496094-.3125-.757813-.136719-.449219-.316406-.882813-.535156-1.296875-.25-.476562-.550781-.921875-.894531-1.335938-.277344-.34375-.582032-.664062-.914063-.960937-.402343-.339844-.84375-.632813-1.3125-.878906-.394531-.238281-.8125-.441407-1.246093-.609375-.519532-.164063-1.058594-.273438-1.601563-.328125-.332031-.097657-.671875-.175781-1.015625-.230469h-40.335938c-2.0625-27.847656-14.984374-48-31.664062-48s-29.601562 20.152344-31.664062 48h-16.671876c-2.0625-27.847656-14.984374-48-31.664062-48s-29.601562 20.152344-31.664062 48h-16.671876c-2.0625-27.847656-14.984374-48-31.664062-48s-29.601562 20.152344-31.664062 48h-16.671876c-2.0625-27.847656-14.984374-48-31.664062-48s-29.601562 20.152344-31.664062 48h-40.335938c-4.417969 0-8 3.582031-8 8v416c0 4.417969 3.582031 8 8 8h384c4.417969 0 8-3.582031 8-8v-24h72c2.402344 0 4.675781-1.082031 6.191406-2.941406 1.519532-1.863282 2.121094-4.304688 1.640625-6.660156zm-79.832031-38.398438c5.777344 0 13.839844 12.257812 15.617188 32h-31.203126c1.746094-19.742188 9.808594-32 15.585938-32zm-80 0c5.777344 0 13.839844 12.257812 15.617188 32h-31.203126c1.746094-19.742188 9.808594-32 15.585938-32zm-80 0c5.777344 0 13.839844 12.257812 15.617188 32h-31.203126c1.746094-19.742188 9.808594-32 15.585938-32zm-80 0c5.777344 0 13.839844 12.257812 15.617188 32h-31.203126c1.746094-19.742188 9.808594-32 15.585938-32zm-64 48h32.335938c2.0625 27.847656 14.984374 48 31.664062 48 4.417969 0 8-3.582031 8-8s-3.582031-8-8-8c-5.777344 0-13.839844-12.257812-15.617188-32h63.953126c2.089843 27.847656 14.984374 48 31.664062 48 4.417969 0 8-3.582031 8-8s-3.582031-8-8-8c-5.777344 0-13.839844-12.257812-15.617188-32h63.953126c2.089843 27.847656 14.984374 48 31.664062 48 4.417969 0 8-3.582031 8-8s-3.582031-8-8-8c-5.777344 0-13.839844-12.257812-15.617188-32h63.953126c2.089843 27.847656 14.984374 48 31.664062 48 4.417969 0 8-3.582031 8-8s-3.582031-8-8-8c-5.777344 0-13.839844-12.257812-15.617188-32h79.617188v80h-368zm368 400h-368v-304h368zm16-32v-298.398438l62.167969 298.398438zm0 0"/><path d="m176 288h-32c-4.417969 0-8 3.582031-8 8v32c0 4.417969 3.582031 8 8 8h32c4.417969 0 8-3.582031 8-8v-32c0-4.417969-3.582031-8-8-8zm-8 32h-16v-16h16zm0 0"/><path d="m256 288h-32c-4.417969 0-8 3.582031-8 8v32c0 4.417969 3.582031 8 8 8h32c4.417969 0 8-3.582031 8-8v-32c0-4.417969-3.582031-8-8-8zm-8 32h-16v-16h16zm0 0"/><path d="m96 288h-32c-4.417969 0-8 3.582031-8 8v32c0 4.417969 3.582031 8 8 8h32c4.417969 0 8-3.582031 8-8v-32c0-4.417969-3.582031-8-8-8zm-8 32h-16v-16h16zm0 0"/><path d="m176 368h-32c-4.417969 0-8 3.582031-8 8v32c0 4.417969 3.582031 8 8 8h32c4.417969 0 8-3.582031 8-8v-32c0-4.417969-3.582031-8-8-8zm-8 32h-16v-16h16zm0 0"/><path d="m256 368h-32c-4.417969 0-8 3.582031-8 8v32c0 4.417969 3.582031 8 8 8h32c4.417969 0 8-3.582031 8-8v-32c0-4.417969-3.582031-8-8-8zm-8 32h-16v-16h16zm0 0"/><path d="m96 368h-32c-4.417969 0-8 3.582031-8 8v32c0 4.417969 3.582031 8 8 8h32c4.417969 0 8-3.582031 8-8v-32c0-4.417969-3.582031-8-8-8zm-8 32h-16v-16h16zm0 0"/><path d="m176 208h-32c-4.417969 0-8 3.582031-8 8v32c0 4.417969 3.582031 8 8 8h32c4.417969 0 8-3.582031 8-8v-32c0-4.417969-3.582031-8-8-8zm-8 32h-16v-16h16zm0 0"/><path d="m256 208h-32c-4.417969 0-8 3.582031-8 8v32c0 4.417969 3.582031 8 8 8h32c4.417969 0 8-3.582031 8-8v-32c0-4.417969-3.582031-8-8-8zm-8 32h-16v-16h16zm0 0"/><path d="m336 288h-32c-4.417969 0-8 3.582031-8 8v32c0 4.417969 3.582031 8 8 8h32c4.417969 0 8-3.582031 8-8v-32c0-4.417969-3.582031-8-8-8zm-8 32h-16v-16h16zm0 0"/><path d="m336 368h-32c-4.417969 0-8 3.582031-8 8v32c0 4.417969 3.582031 8 8 8h32c4.417969 0 8-3.582031 8-8v-32c0-4.417969-3.582031-8-8-8zm-8 32h-16v-16h16zm0 0"/><path d="m336 208h-32c-4.417969 0-8 3.582031-8 8v32c0 4.417969 3.582031 8 8 8h32c4.417969 0 8-3.582031 8-8v-32c0-4.417969-3.582031-8-8-8zm-8 32h-16v-16h16zm0 0"/><path d="m96 208h-32c-4.417969 0-8 3.582031-8 8v32c0 4.417969 3.582031 8 8 8h32c4.417969 0 8-3.582031 8-8v-32c0-4.417969-3.582031-8-8-8zm-8 32h-16v-16h16zm0 0"/>
</svg>
<svg version="1.1" id="switch"x="0px" y="0px" viewBox="0 0 60 60" style="enable-background:new 0 0 60 60;" xml:space="preserve"> <g> <path d="M52.472,0H7.528C3.377,0,0,3.377,0,7.528v44.943C0,56.623,3.377,60,7.528,60h44.943C56.623,60,60,56.623,60,52.472V7.528 C60,3.377,56.623,0,52.472,0z M58,52.472C58,55.52,55.52,58,52.472,58H7.528C4.48,58,2,55.52,2,52.472V7.528C2,4.48,4.48,2,7.528,2 h44.943C55.52,2,58,4.48,58,7.528V52.472z"/> <path d="M16,28h28c6.065,0,11-4.935,11-11S50.065,6,44,6H16C9.935,6,5,10.935,5,17S9.935,28,16,28z M44,10c3.866,0,7,3.134,7,7 c0,3.866-3.134,7-7,7s-7-3.134-7-7C37,13.134,40.134,10,44,10z"/> <path d="M16,35c-4.411,0-8,3.589-8,8s3.589,8,8,8s8-3.589,8-8S20.411,35,16,35z M16,49c-3.309,0-6-2.691-6-6s2.691-6,6-6 s6,2.691,6,6S19.309,49,16,49z"/> <path d="M44,31H16C9.383,31,4,36.383,4,43s5.383,12,12,12h28c6.617,0,12-5.383,12-12S50.617,31,44,31z M44,53H16 c-5.514,0-10-4.486-10-10s4.486-10,10-10h28c5.514,0,10,4.486,10,10S49.514,53,44,53z"/> </g> <g> </g> <g> </g> <g> </g> <g> </g> <g> </g> <g> </g> <g> </g> <g> </g> <g> </g> <g> </g> <g> </g> <g> </g> <g> </g> <g> </g> <g> </g>
</svg>
<svg version="1.1" id="progressbar" x="0px" y="0px" viewBox="0 0 16 16" style="enable-background:new 0 0 16 16;" xml:space="preserve">
<path class="st0" d="M0,5v6h16V5H0z M15.2,10.1H0.8V5.9h14.4V10.1z"/>
<path class="st0" d="M2,7.2h7v1.6H2V7.2z"/>
</svg>

<svg id="reports" width="512" height="512" viewBox="0 0 32 32">
<path d="M30 2c-1 0-27 0-28 0s-2 1-2 2 0 17 0 18 1 2 2 2 10 0 10 0-6 2-6 4c0 1 1 2 2 2s15 0 16 0 2-1 2-2c0-2-6-4-6-4s9 0 10 0 2-1 2-2 0-17 0-18-1-2-2-2zM30 22h-28v-18h28v18zM28 6h-6c-12 2-16.938 9.375-18 12v2h24v-14z"></path>
</svg>

<svg version="1.1" id="messagebox" x="0px" y="0px" viewBox="0 0 370.88 370.88" style="enable-background:new 0 0 370.88 370.88;" xml:space="preserve"> <g> <g> <path d="M355.6,66.16H15.28C6.841,66.16,0,73.001,0,81.44v208c0,8.439,6.841,15.28,15.28,15.28H355.6 c8.439,0,15.28-6.841,15.28-15.28v-208C370.88,73.001,364.039,66.16,355.6,66.16z M15.28,78.16H355.6 c1.436,0.007,2.7,0.947,3.12,2.32L185.44,188.72L12.16,80.48C12.58,79.107,13.844,78.167,15.28,78.16z M12,94.16L136.64,172 L12,270.88V94.16z M358.88,289.36c0,1.812-1.469,3.28-3.28,3.28H15.28c-1.811,0-3.28-1.469-3.28-3.28v-3.2l135.44-107.04 l34.8,21.76c1.955,1.233,4.445,1.233,6.4,0l34.8-21.76l135.44,107.04V289.36z M358.88,270.88l-124.96-98.56l124.96-77.44V270.88z" /> </g> </g> <g> </g> <g> </g> <g> </g> <g> </g> <g> </g> <g> </g> <g> </g> <g> </g> <g> </g> <g> </g> <g> </g> <g> </g> <g> </g> <g> </g> <g> </g>
</svg>
<svg version="1.1" id="carousel" x="0px" y="0px" viewBox="0 0 58 58" style="enable-background:new 0 0 58 58;" xml:space="preserve">
<g> <path d="M57,0.6H1c-0.6,0-1,0.4-1,1V45c0,0.5,0.4,1,1,1h56c0.6,0,1-0.4,1-1V1.6C58,1.1,57.6,0.6,57,0.6z M56,44H2V2.6h54V44z"/> <path d="M16,22.4c3.1,0,5.6-2.5,5.6-5.5c0-3-2.5-5.5-5.6-5.5s-5.6,2.5-5.6,5.5S12.9,22.4,16,22.4z M16,13.4c2,0,3.6,1.6,3.6,3.5 S18,20.5,16,20.5s-3.6-1.6-3.6-3.5S14,13.4,16,13.4z"/> <path d="M7,40c0.2,0,0.5-0.1,0.7-0.2L24,25.6l10.3,10.2c0.4,0.4,1,0.4,1.4,0c0.4-0.4,0.4-1,0-1.4l-4.8-4.7l9.2-9.9l11.3,10.2 c0.4,0.4,1,0.3,1.4-0.1c0.4-0.4,0.3-1-0.1-1.4l-12-10.8c-0.2-0.2-0.5-0.3-0.7-0.3c-0.3,0-0.5,0.1-0.7,0.3l-9.8,10.6l-4.7-4.7 c-0.4-0.4-1-0.4-1.4,0l-17,14.8c-0.4,0.4-0.5,1-0.1,1.4C6.4,39.9,6.7,40,7,40z"/> <path d="M18,55.5c2,0,3.6-1.6,3.6-3.5c0-1.9-1.6-3.5-3.6-3.5s-3.6,1.6-3.6,3.5C14.4,54,16,55.5,18,55.5z M28.7,55.5 c2,0,3.6-1.6,3.6-3.5c0-1.9-1.6-3.5-3.6-3.5s-3.6,1.6-3.6,3.5C25.1,54,26.7,55.5,28.7,55.5z M28.7,50.5c0.9,0,1.6,0.7,1.6,1.5 c0,0.9-0.7,1.5-1.6,1.5c-0.9,0-1.6-0.7-1.6-1.5S27.8,50.5,28.7,50.5z M39.1,55.5c2,0,3.6-1.6,3.6-3.5c0-1.9-1.6-3.5-3.6-3.5 s-3.6,1.6-3.6,3.5C35.6,54,37.2,55.5,39.1,55.5z M39.1,50.5c0.9,0,1.6,0.7,1.6,1.5c0,0.9-0.7,1.5-1.6,1.5s-1.6-0.7-1.6-1.5 S38.3,50.5,39.1,50.5z"/> </g>
</svg>
<svg version="1.1" id="sliders" x="0px" y="0px"
	 viewBox="0 0 682.7 682.7" style="enable-background:new 0 0 682.7 682.7;" xml:space="preserve">
<path d="M598.5,21h-515C49,21,21,49,21,83.5v515C21,633,49,661,83.5,661h515c34.5,0,62.5-28,62.5-62.5v-515C661,49,633,21,598.5,21z
	 M636,598.5c0,20.7-16.8,37.5-37.5,37.5h-515C62.8,636,46,619.2,46,598.5v-515C46,62.8,62.8,46,83.5,46h515
	c20.7,0,37.5,16.8,37.5,37.5V598.5z"/>
<path d="M523.5,328.5H282.4c-5.9-32-34-56.3-67.6-56.3s-61.7,24.3-67.6,56.3h-38.6c-6.9,0-12.5,5.6-12.5,12.5s5.6,12.5,12.5,12.5
	h38.6c5.9,32,34,56.3,67.6,56.3s61.7-24.3,67.6-56.3h241.1c6.9,0,12.5-5.6,12.5-12.5S530.4,328.5,523.5,328.5z M214.8,384.8
	c-24.1,0-43.8-19.6-43.8-43.8s19.6-43.8,43.8-43.8s43.8,19.6,43.8,43.8S238.9,384.8,214.8,384.8z"/>
<path d="M573.5,353.5c-6.9,0-12.5-5.6-12.5-12.5s5.6-12.5,12.5-12.5h0c6.9,0,12.5,5.6,12.5,12.5S580.4,353.5,573.5,353.5z"/>
</svg>
<svg height="682.66669pt" id="dual-Slider" viewBox="-21 -21 682.66669 682.66669" width="682.66669pt"><path d="m577.5 0h-515c-34.460938 0-62.5 28.039062-62.5 62.5v515c0 34.460938 28.039062 62.5 62.5 62.5h515c34.460938 0 62.5-28.039062 62.5-62.5v-515c0-34.460938-28.039062-62.5-62.5-62.5zm37.5 577.5c0 20.671875-16.828125 37.5-37.5 37.5h-515c-20.671875 0-37.5-16.828125-37.5-37.5v-515c0-20.671875 16.828125-37.5 37.5-37.5h515c20.671875 0 37.5 16.828125 37.5 37.5zm0 0"/><path d="m552.5 120h-38.636719c-5.898437-31.960938-33.976562-56.25-67.613281-56.25s-61.714844 24.289062-67.613281 56.25h-291.136719c-6.898438 0-12.5 5.601562-12.5 12.5s5.601562 12.5 12.5 12.5h291.136719c5.898437 31.960938 33.976562 56.25 67.613281 56.25s61.714844-24.289062 67.613281-56.25h38.636719c6.898438 0 12.5-5.601562 12.5-12.5s-5.601562-12.5-12.5-12.5zm-106.25 56.25c-24.125 0-43.75-19.625-43.75-43.75s19.625-43.75 43.75-43.75 43.75 19.625 43.75 43.75-19.625 43.75-43.75 43.75zm0 0"/><path d="m502.5 307.5h-241.136719c-5.898437-31.960938-33.976562-56.25-67.613281-56.25s-61.714844 24.289062-67.613281 56.25h-38.636719c-6.898438 0-12.5 5.601562-12.5 12.5s5.601562 12.5 12.5 12.5h38.636719c5.898437 31.960938 33.976562 56.25 67.613281 56.25s61.714844-24.289062 67.613281-56.25h241.136719c6.898438 0 12.5-5.601562 12.5-12.5s-5.601562-12.5-12.5-12.5zm-308.75 56.25c-24.125 0-43.75-19.625-43.75-43.75s19.625-43.75 43.75-43.75 43.75 19.625 43.75 43.75-19.625 43.75-43.75 43.75zm0 0"/><path d="m552.5 486.25h-38.636719c-5.898437-31.960938-33.976562-56.25-67.613281-56.25s-61.714844 24.289062-67.613281 56.25h-291.136719c-6.898438 0-12.5 5.601562-12.5 12.5s5.601562 12.5 12.5 12.5h291.136719c5.898437 31.960938 33.976562 56.25 67.613281 56.25s61.714844-24.289062 67.613281-56.25h38.636719c6.898438 0 12.5-5.601562 12.5-12.5s-5.601562-12.5-12.5-12.5zm-106.25 56.25c-24.125 0-43.75-19.625-43.75-43.75s19.625-43.75 43.75-43.75 43.75 19.625 43.75 43.75-19.625 43.75-43.75 43.75zm0 0"/><path d="m552.523438 332.5c-6.902344 0-12.503907-5.59375-12.503907-12.5s5.589844-12.5 12.496094-12.5h.007813c6.90625 0 12.5 5.59375 12.5 12.5s-5.59375 12.5-12.5 12.5zm0 0"/>
</svg>

<svg version="1.1" id="spinner" x="0px" y="0px" width="456.817px" height="456.817px" viewBox="0 0 456.817 456.817" style="enable-background:new 0 0 456.817 456.817;" xml:space="preserve"> <g> <g> <path d="M109.641,324.332c-11.423,0-21.13,3.997-29.125,11.991c-7.992,8.001-11.991,17.706-11.991,29.129 c0,11.424,3.996,21.129,11.991,29.13c7.998,7.994,17.705,11.991,29.125,11.991c11.231,0,20.889-3.997,28.98-11.991 c8.088-7.991,12.132-17.706,12.132-29.13c0-11.423-4.043-21.121-12.132-29.129C130.529,328.336,120.872,324.332,109.641,324.332z" /> <path d="M100.505,237.542c0-12.562-4.471-23.313-13.418-32.267c-8.946-8.946-19.702-13.418-32.264-13.418 c-12.563,0-23.317,4.473-32.264,13.418c-8.945,8.947-13.417,19.701-13.417,32.267c0,12.56,4.471,23.309,13.417,32.258 c8.947,8.949,19.701,13.422,32.264,13.422c12.562,0,23.318-4.473,32.264-13.422C96.034,260.857,100.505,250.102,100.505,237.542z" /> <path d="M365.454,132.48c6.276,0,11.662-2.24,16.129-6.711c4.473-4.475,6.714-9.854,6.714-16.134 c0-6.283-2.241-11.658-6.714-16.13c-4.47-4.475-9.853-6.711-16.129-6.711c-6.283,0-11.663,2.24-16.136,6.711 c-4.47,4.473-6.707,9.847-6.707,16.13s2.237,11.659,6.707,16.134C353.791,130.244,359.171,132.48,365.454,132.48z"/> <path d="M109.644,59.388c-13.897,0-25.745,4.902-35.548,14.703c-9.804,9.801-14.703,21.65-14.703,35.544 c0,13.899,4.899,25.743,14.703,35.548c9.806,9.804,21.654,14.705,35.548,14.705s25.743-4.904,35.544-14.705 c9.801-9.805,14.703-21.652,14.703-35.548c0-13.894-4.902-25.743-14.703-35.544C135.387,64.29,123.538,59.388,109.644,59.388z"/> <path d="M439.684,218.125c-5.328-5.33-11.799-7.992-19.41-7.992c-7.618,0-14.089,2.662-19.417,7.992 c-5.325,5.33-7.987,11.803-7.987,19.421c0,7.61,2.662,14.092,7.987,19.41c5.331,5.332,11.799,7.994,19.417,7.994 c7.611,0,14.086-2.662,19.41-7.994c5.332-5.324,7.991-11.8,7.991-19.41C447.675,229.932,445.02,223.458,439.684,218.125z"/> <path d="M365.454,333.473c-8.761,0-16.279,3.138-22.562,9.421c-6.276,6.276-9.418,13.798-9.418,22.559 c0,8.754,3.142,16.276,9.418,22.56c6.283,6.282,13.802,9.417,22.562,9.417c8.754,0,16.272-3.141,22.555-9.417 c6.283-6.283,9.422-13.802,9.422-22.56c0-8.761-3.139-16.275-9.422-22.559C381.727,336.61,374.208,333.473,365.454,333.473z"/> <path d="M237.547,383.717c-10.088,0-18.702,3.576-25.844,10.715c-7.135,7.139-10.705,15.748-10.705,25.837 s3.566,18.699,10.705,25.837c7.142,7.139,15.752,10.712,25.844,10.712c10.089,0,18.699-3.573,25.838-10.712 c7.139-7.138,10.708-15.748,10.708-25.837s-3.569-18.698-10.708-25.837S247.636,383.717,237.547,383.717z"/> <path d="M237.547,0c-15.225,0-28.174,5.327-38.834,15.986c-10.657,10.66-15.986,23.606-15.986,38.832 c0,15.227,5.327,28.167,15.986,38.828c10.66,10.657,23.606,15.987,38.834,15.987c15.232,0,28.172-5.327,38.828-15.987 c10.656-10.656,15.985-23.601,15.985-38.828c0-15.225-5.329-28.168-15.985-38.832C265.719,5.33,252.779,0,237.547,0z"/> </g> </g> <g> </g> <g> </g> <g> </g> <g> </g> <g> </g> <g> </g> <g> </g> <g> </g> <g> </g> <g> </g> <g> </g> <g> </g> <g> </g> <g> </g> <g> </g>
 </svg>
 <svg version="1.1" id="menu" x="0px" y="0px" viewBox="0 0 56 56" style="enable-background:new 0 0 56 56;" xml:space="preserve"> <g> <path d="M28,0C12.561,0,0,12.561,0,28s12.561,28,28,28s28-12.561,28-28S43.439,0,28,0z M28,54C13.663,54,2,42.336,2,28 S13.663,2,28,2s26,11.664,26,26S42.337,54,28,54z"/> <path d="M40,16H16c-0.553,0-1,0.448-1,1s0.447,1,1,1h24c0.553,0,1-0.448,1-1S40.553,16,40,16z"/> <path d="M40,27H16c-0.553,0-1,0.448-1,1s0.447,1,1,1h24c0.553,0,1-0.448,1-1S40.553,27,40,27z"/> <path d="M40,38H16c-0.553,0-1,0.448-1,1s0.447,1,1,1h24c0.553,0,1-0.448,1-1S40.553,38,40,38z"/> </g> <g> </g> <g> </g> <g> </g> <g> </g> <g> </g> <g> </g> <g> </g> <g> </g> <g> </g> <g> </g> <g> </g> <g> </g> <g> </g> <g> </g> <g> </g>
 </svg>
 <svg height="682pt" id="tooltip" viewBox="-21 -47 682.66669 682" width="682pt"><path d="m552.011719-1.332031h-464.023438c-48.515625 0-87.988281 39.464843-87.988281 87.988281v283.972656c0 48.414063 39.300781 87.816406 87.675781 87.988282v128.863281l185.191407-128.863281h279.144531c48.515625 0 87.988281-39.472657 87.988281-87.988282v-283.972656c0-48.523438-39.472656-87.988281-87.988281-87.988281zm50.488281 371.960937c0 27.835938-22.648438 50.488282-50.488281 50.488282h-290.910157l-135.925781 94.585937v-94.585937h-37.1875c-27.839843 0-50.488281-22.652344-50.488281-50.488282v-283.972656c0-27.84375 22.648438-50.488281 50.488281-50.488281h464.023438c27.839843 0 50.488281 22.644531 50.488281 50.488281zm0 0"/><path d="m171.292969 131.171875h297.414062v37.5h-297.414062zm0 0"/><path d="m171.292969 211.171875h297.414062v37.5h-297.414062zm0 0"/><path d="m171.292969 291.171875h297.414062v37.5h-297.414062zm0 0"/>
</svg>
<svg height="512pt" viewBox="0 -61 512 512" width="512pt" id="dialog"><g fill-rule="evenodd"><path d="m502 188.511719c-5.523438 0-10 4.476562-10 10v171.609375h-472v-20.003906c0-5.519532-4.476562-10-10-10s-10 4.480468-10 10v30.003906c0 5.523437 4.476562 10 10 10h492c5.523438 0 10-4.476563 10-10v-181.609375c0-5.523438-4.476562-10-10-10zm0 0"/><path d="m502 0h-492c-5.523438 0-10 4.476562-10 10v260.117188c0 5.523437 4.476562 10 10 10s10-4.476563 10-10v-171.605469h472v20c0 5.523437 4.476562 10 10 10s10-4.476563 10-10v-108.511719c0-5.523438-4.476562-10-10-10zm-482 78.511719v-58.511719h472v58.511719zm0 0"/><path d="m58.601562 341.519531h346.738282c5.519531 0 10-4.476562 10-10 0-5.523437-4.480469-10-10-10h-346.738282c-5.523437 0-10 4.476563-10 10 0 5.523438 4.476563 10 10 10zm0 0"/><path d="m247.027344 147.113281h208.613281c5.519531 0 10-4.476562 10-10 0-5.523437-4.480469-10-10-10h-208.613281c-5.523438 0-10 4.476563-10 10 0 5.523438 4.476562 10 10 10zm0 0"/><path d="m247.027344 211.914062h208.613281c5.519531 0 10-4.476562 10-10 0-5.523437-4.480469-10-10-10h-208.613281c-5.523438 0-10 4.476563-10 10 0 5.523438 4.476562 10 10 10zm0 0"/><path d="m385.347656 39.253906h-34.011718c-5.523438 0-10 4.476563-10 10 0 5.523438 4.476562 10 10 10h34.011718c5.519532 0 10-4.476562 10-10 0-5.523437-4.480468-10-10-10zm0 0"/><path d="m247.027344 276.71875h208.613281c5.519531 0 10-4.480469 10-10 0-5.523438-4.480469-10-10-10h-208.613281c-5.523438 0-10 4.476562-10 10 0 5.519531 4.476562 10 10 10zm0 0"/><path d="m455.640625 39.253906h-34.011719c-5.523437 0-10 4.476563-10 10 0 5.523438 4.476563 10 10 10h34.011719c5.523437 0 10-4.476562 10-10 0-5.523437-4.476563-10-10-10zm0 0"/><path d="m58.601562 276.71875h129.605469c5.519531 0 10-4.480469 10-10v-129.605469c0-5.523437-4.480469-10-10-10h-129.605469c-5.523437 0-10 4.476563-10 10v129.605469c0 5.519531 4.476563 10 10 10zm10-129.605469h109.605469v109.605469h-109.605469zm0 0"/><path d="m10 320.121094c5.507812 0 10-4.492188 10-10 0-5.507813-4.492188-10-10-10s-10 4.492187-10 10c0 5.507812 4.492188 10 10 10zm0 0"/><path d="m502 148.511719c-5.507812 0-10 4.492187-10 10 0 5.507812 4.492188 10 10 10s10-4.492188 10-10c0-5.507813-4.492188-10-10-10zm0 0"/></g>
</svg>

<svg version="1.1" id="time-Picker" x="0px" y="0px" viewBox="0 0 372.96 372.96" style="enable-background:new 0 0 372.96 372.96;" xml:space="preserve"> <g> <g> <path d="M186.48,0C83.49,0,0,83.49,0,186.48s83.49,186.48,186.48,186.48s186.48-83.49,186.48-186.48 C372.828,83.545,289.415,0.132,186.48,0z M194.48,356.56v-32.8c0-4.418-3.582-8-8-8s-8,3.582-8,8v32.8 C90.759,352.372,20.588,282.201,16.4,194.48h32.8c4.418,0,8-3.582,8-8s-3.582-8-8-8H16.4C20.588,90.759,90.759,20.588,178.48,16.4 v32.8c0,4.418,3.582,8,8,8s8-3.582,8-8V16.4c87.721,4.188,157.892,74.359,162.08,162.08h-32.8c-4.418,0-8,3.582-8,8s3.582,8,8,8 h0.08h32.8C352.449,282.23,282.232,352.412,194.48,356.56z"/> </g> </g> <g> <g> <path d="M270.88,260.88l-76.4-77.68v-80.72c0-4.418-3.582-8-8-8s-8,3.582-8,8v84c0.009,2.099,0.842,4.11,2.32,5.6l78.64,80 c3.093,3.159,8.161,3.213,11.32,0.12C273.919,269.107,273.973,264.039,270.88,260.88z"/> </g> </g> <g> </g> <g> </g> <g> </g> <g> </g> <g> </g> <g> </g> <g> </g> <g> </g> <g> </g> <g> </g> <g> </g> <g> </g> <g> </g> <g> </g> <g> </g>
</svg>

<svg version="1.1" id="date-Picker" x="0px" y="0px" viewBox="0 0 512 512" style="enable-background:new 0 0 512 512;" xml:space="preserve">
	 <g> <g> <path d="M462,44h-47.667V30c0-16.542-13.458-30-30-30s-30,13.458-30,30v14h-168V30c0-16.542-13.458-30-30-30s-30,13.458-30,30 v14.37c-0.85-0.235-1.741-0.37-2.666-0.37H83.823c-27.57,0-50,22.43-50,50v170.333c0,5.523,4.478,10,10,10s10-4.477,10-10V147 h360.51c5.522,0,10-4.477,10-10s-4.478-10-10-10H53.823V94c0-16.542,13.458-30,30-30h39.844c0.925,0,1.816-0.136,2.666-0.37V76.5 c0,16.542,13.458,30,30,30s30-13.458,30-30V64h168v12.5c0,16.542,13.458,30,30,30s30-13.458,30-30V64H462 c16.542,0,30,13.458,30,30v379.994c0,9.928-8.077,18.006-18.006,18.006s-18.006-8.078-18.006-18.006v-25.869 c0-5.523-4.478-10-10-10H329.667c-5.522,0-10,4.477-10,10s4.478,10,10,10h106.321v15.869c0,6.511,1.648,12.643,4.545,18.006H38 c-9.925,0-18-8.075-18-18v-15.875h223.825c5.522,0,10-4.477,10-10s-4.478-10-10-10h-99.916 c17.474-15.049,28.57-37.309,28.57-62.125c0-45.215-36.785-82-82-82c-45.215,0-82,36.785-82,82 c0,24.816,11.096,47.076,28.57,62.125H10c-5.522,0-10,4.477-10,10V474c0,20.953,17.047,38,38,38h435.994 C494.95,512,512,494.951,512,473.994V94C512,66.43,489.57,44,462,44z M166.333,76.5c0,5.514-4.486,10-10,10s-10-4.486-10-10V30 c0-5.514,4.486-10,10-10s10,4.486,10,10V76.5z M394.333,76.5c0,5.514-4.486,10-10,10c-5.514,0-10-4.486-10-10V30 c0-5.514,4.486-10,10-10c5.514,0,10,4.486,10,10V76.5z M28.479,376c0-34.187,27.813-62,62-62s62,27.813,62,62s-27.813,62-62,62 S28.479,410.187,28.479,376z"/> </g> </g> <g> <g> <path d="M468.309,129.93c-1.859-1.86-4.439-2.93-7.069-2.93c-2.631,0-5.21,1.07-7.07,2.93c-1.86,1.86-2.93,4.44-2.93,7.07 s1.069,5.21,2.93,7.07c1.861,1.86,4.439,2.93,7.07,2.93c2.63,0,5.21-1.07,7.069-2.93c1.86-1.86,2.931-4.44,2.931-7.07 S470.17,131.79,468.309,129.93z"/> </g> </g> <g> <g> <path d="M298.649,441.05c-1.859-1.86-4.439-2.92-7.069-2.92s-5.21,1.06-7.07,2.92c-1.86,1.87-2.93,4.44-2.93,7.07 c0,2.64,1.069,5.21,2.93,7.08c1.86,1.86,4.44,2.92,7.07,2.92s5.21-1.06,7.069-2.92c1.86-1.87,2.931-4.45,2.931-7.08 C301.58,445.49,300.51,442.92,298.649,441.05z"/> </g> </g> <g> <g> <path d="M226.245,304c-20.953,0-38,17.047-38,38s17.047,38,38,38s38-17.047,38-38S247.198,304,226.245,304z M226.245,360 c-9.925,0-18-8.075-18-18s8.075-18,18-18s18,8.075,18,18S236.17,360,226.245,360z"/> </g> </g> <g> <g> <path d="M319.578,304c-20.953,0-38,17.047-38,38s17.047,38,38,38s38-17.047,38-38S340.531,304,319.578,304z M319.578,360 c-9.925,0-18-8.075-18-18s8.075-18,18-18s18,8.075,18,18S329.503,360,319.578,360z"/> </g> </g> <g> <g> <path d="M412.912,304c-20.953,0-38,17.047-38,38s17.047,38,38,38c20.953,0,38-17.047,38-38S433.865,304,412.912,304z M412.912,360 c-9.925,0-18-8.075-18-18s8.075-18,18-18s18,8.075,18,18S422.837,360,412.912,360z"/> </g> </g> <g> <g> <path d="M132.912,200c-20.953,0-38,17.047-38,38s17.047,38,38,38s38-17.047,38-38S153.865,200,132.912,200z M132.912,256 c-9.925,0-18-8.075-18-18s8.075-18,18-18c9.925,0,18,8.075,18,18S142.837,256,132.912,256z"/> </g> </g> <g> <g> <path d="M319.578,200c-20.953,0-38,17.047-38,38s17.047,38,38,38s38-17.047,38-38S340.531,200,319.578,200z M319.578,256 c-9.925,0-18-8.075-18-18s8.075-18,18-18s18,8.075,18,18S329.503,256,319.578,256z"/> </g> </g> <g> <g> <path d="M412.912,200c-20.953,0-38,17.047-38,38s17.047,38,38,38c20.953,0,38-17.047,38-38S433.865,200,412.912,200z M412.912,256 c-9.925,0-18-8.075-18-18s8.075-18,18-18s18,8.075,18,18S422.837,256,412.912,256z"/> </g> </g> <g> <g> <path d="M226.245,200c-20.953,0-38,17.047-38,38s17.047,38,38,38s38-17.047,38-38S247.198,200,226.245,200z M226.245,256 c-9.925,0-18-8.075-18-18s8.075-18,18-18s18,8.075,18,18S236.17,256,226.245,256z"/> </g> </g> <g> <g> <path d="M126.104,351.629c-3.906-3.905-10.236-3.905-14.143,0l-32.566,32.567l-11.129-11.129c-3.906-3.905-10.236-3.905-14.143,0 c-3.905,3.905-3.905,10.237,0,14.143l18.201,18.199c1.876,1.875,4.419,2.929,7.071,2.929c2.652,0,5.195-1.054,7.071-2.929 l39.638-39.638C130.009,361.866,130.009,355.534,126.104,351.629z"/> </g> </g> <g> </g> <g> </g> <g> </g> <g> </g> <g> </g> <g> </g> <g> </g> <g> </g> <g> </g> <g> </g> <g> </g> <g> </g> <g> </g> <g> </g> <g> </g>
</svg>
<svg version="1.1" id="navigation" x="0px" y="0px" viewBox="0 0 60 60" style="enable-background:new 0 0 60 60;" xml:space="preserve"> <g> <path d="M44.394,13.091L8.633,29.503c-0.399,0.184-0.632,0.605-0.574,1.041s0.393,0.782,0.826,0.854l15.833,2.653l1.809,14.95 c0.054,0.438,0.389,0.791,0.824,0.865c0.057,0.01,0.113,0.015,0.169,0.015c0.375,0,0.726-0.211,0.896-0.556l17.291-34.882 c0.188-0.38,0.117-0.837-0.178-1.141S44.776,12.914,44.394,13.091z M28.11,45.438l-1.496-12.369 c-0.054-0.44-0.391-0.793-0.828-0.866l-13.362-2.239L42.66,16.087L28.11,45.438z"/> <path d="M30,0C13.458,0,0,13.458,0,30s13.458,30,30,30s30-13.458,30-30S46.542,0,30,0z M30,58C14.561,58,2,45.439,2,30 S14.561,2,30,2s28,12.561,28,28S45.439,58,30,58z"/> </g> <g> </g> <g> </g> <g> </g> <g> </g> <g> </g> <g> </g> <g> </g> <g> </g> <g> </g> <g> </g> <g> </g> <g> </g> <g> </g> <g> </g> <g> </g>
</svg>
<svg version="1.1" id="dropdown" x="0px" y="0px" viewBox="0 0 294.842 294.842" style="enable-background:new 0 0 294.842 294.842;" xml:space="preserve">
<g> <path d="M292.128,214.846c-2.342-2.344-6.143-2.344-8.484,0l-59.512,59.511V6c0-3.313-2.687-6-6-6s-6,2.687-6,6v268.356 l-59.513-59.512c-2.342-2.342-6.142-2.343-8.485,0.001c-2.343,2.343-2.343,6.142,0.001,8.485l69.755,69.754 c1.171,1.171,2.707,1.757,4.242,1.757s3.071-0.586,4.242-1.758l69.754-69.754C294.472,220.987,294.472,217.188,292.128,214.846z"/> <path d="M6.956,12h180.137c3.313,0,6-2.687,6-6s-2.687-6-6-6H6.956c-3.313,0-6,2.687-6,6S3.643,12,6.956,12z"/> <path d="M6.956,82.228h180.137c3.313,0,6-2.687,6-6s-2.687-6-6-6H6.956c-3.313,0-6,2.687-6,6S3.643,82.228,6.956,82.228z"/> <path d="M6.956,152.456h180.137c3.313,0,6-2.687,6-6s-2.687-6-6-6H6.956c-3.313,0-6,2.687-6,6S3.643,152.456,6.956,152.456z"/> <path d="M124.438,210.685H6.956c-3.313,0-6,2.687-6,6s2.687,6,6,6h117.482c3.313,0,6-2.687,6-6S127.752,210.685,124.438,210.685z" /> <path d="M124.438,280.912H6.956c-3.313,0-6,2.687-6,6s2.687,6,6,6h117.482c3.313,0,6-2.687,6-6S127.752,280.912,124.438,280.912z" /> </g> <g> </g> <g> </g> <g> </g> <g> </g> <g> </g> <g> </g> <g> </g> <g> </g> <g> </g> <g> </g> <g> </g> <g> </g> <g> </g> <g> </g> <g> </g>
</svg>
<svg version="1.1" id="video" x="0px" y="0px" viewBox="0 0 60 60" style="enable-background:new 0 0 60 60;" xml:space="preserve">
<g> <path d="M45.563,29.174l-22-15c-0.307-0.208-0.703-0.231-1.031-0.058C22.205,14.289,22,14.629,22,15v30 c0,0.371,0.205,0.711,0.533,0.884C22.679,45.962,22.84,46,23,46c0.197,0,0.394-0.059,0.563-0.174l22-15 C45.836,30.64,46,30.331,46,30S45.836,29.36,45.563,29.174z M24,43.107V16.893L43.225,30L24,43.107z"/> <path d="M30,0C13.458,0,0,13.458,0,30s13.458,30,30,30s30-13.458,30-30S46.542,0,30,0z M30,58C14.561,58,2,45.439,2,30 S14.561,2,30,2s28,12.561,28,28S45.439,58,30,58z"/> </g> <g> </g> <g> </g> <g> </g> <g> </g> <g> </g> <g> </g> <g> </g> <g> </g> <g> </g> <g> </g> <g> </g> <g> </g> <g> </g> <g> </g> <g> </g>
</svg>
<svg version="1.1" id="map" x="0px" y="0px" viewBox="0 0 55.017 55.017" style="enable-background:new 0 0 55.017 55.017;" xml:space="preserve">
<g> <path d="M51.688,23.013H40.789c-0.553,0-1,0.447-1,1s0.447,1,1,1h9.102l2.899,27H2.268l3.403-27h9.118c0.553,0,1-0.447,1-1 s-0.447-1-1-1H3.907L0,54.013h55.017L51.688,23.013z"/> <path d="M26.654,38.968c-0.147,0.087-0.304,0.164-0.445,0.255c-0.22,0.142-0.435,0.291-0.646,0.445 c-0.445,0.327-0.541,0.953-0.215,1.398c0.196,0.267,0.5,0.408,0.808,0.408c0.205,0,0.412-0.063,0.591-0.193 c0.178-0.131,0.359-0.257,0.548-0.379c0.321-0.208,0.662-0.403,1.014-0.581c0.468-0.237,0.658-0.791,0.462-1.269 c0.008-0.008,0.018-0.014,0.025-0.022c1.809-1.916,7.905-9.096,10.429-21.058c0.512-2.426,0.627-4.754,0.342-6.919 c-0.86-6.575-4.945-10.051-11.813-10.051c-6.866,0-10.951,3.476-11.813,10.051c-0.284,2.166-0.169,4.494,0.343,6.919 C18.783,29.818,24.783,36.97,26.654,38.968z M17.924,11.314c0.733-5.592,3.949-8.311,9.831-8.311c5.883,0,9.098,2.719,9.83,8.311 c0.255,1.94,0.148,4.043-0.316,6.247C35,28.314,29.59,35.137,27.755,37.207c-1.837-2.072-7.246-8.898-9.514-19.646 C17.776,15.357,17.67,13.255,17.924,11.314z"/> <path d="M27.755,19.925c4.051,0,7.346-3.295,7.346-7.346s-3.295-7.346-7.346-7.346s-7.346,3.295-7.346,7.346 S23.704,19.925,27.755,19.925z M27.755,7.234c2.947,0,5.346,2.398,5.346,5.346s-2.398,5.346-5.346,5.346s-5.346-2.398-5.346-5.346 S24.808,7.234,27.755,7.234z"/> <path d="M31.428,37.17c-0.54,0.114-0.884,0.646-0.769,1.187c0.1,0.47,0.515,0.791,0.977,0.791c0.069,0,0.14-0.007,0.21-0.022 c0.586-0.124,1.221-0.229,1.886-0.313c0.548-0.067,0.938-0.567,0.869-1.115c-0.068-0.549-0.563-0.945-1.115-0.869 C32.763,36.918,32.07,37.033,31.428,37.17z"/> <path d="M36.599,37.576c0.022,0.537,0.466,0.957,0.998,0.957c0.015,0,0.029,0,0.044-0.001l2.001-0.083 c0.551-0.025,0.979-0.493,0.953-1.044c-0.025-0.553-0.539-0.984-1.044-0.954l-1.996,0.083 C37.003,36.557,36.575,37.023,36.599,37.576z"/> <path d="M22.433,42.177c-0.514,0.388-1.045,0.761-1.58,1.107c-0.463,0.301-0.595,0.92-0.294,1.384 c0.191,0.295,0.513,0.455,0.84,0.455c0.187,0,0.375-0.052,0.544-0.161c0.573-0.372,1.144-0.772,1.695-1.188 c0.44-0.333,0.528-0.96,0.196-1.401C23.501,41.936,22.876,41.844,22.433,42.177z"/> <path d="M44.72,35.583c-0.338,0.237-0.777,0.409-1.346,0.526c-0.541,0.111-0.889,0.641-0.777,1.182 c0.098,0.473,0.514,0.798,0.979,0.798c0.067,0,0.135-0.007,0.203-0.021c0.842-0.174,1.526-0.452,2.096-0.853l0.134-0.098 c0.44-0.334,0.527-0.961,0.194-1.401c-0.334-0.44-0.96-0.526-1.401-0.194L44.72,35.583z"/> <path d="M8.86,43.402c0.145-0.533-0.171-1.082-0.704-1.226c-0.529-0.149-1.082,0.169-1.226,0.704 c-0.126,0.464-0.201,0.938-0.225,1.405C6.7,44.4,6.697,44.516,6.697,44.638c0.001,0.196,0.01,0.392,0.029,0.587 c0.053,0.515,0.487,0.898,0.994,0.898c0.033,0,0.067-0.002,0.103-0.005c0.549-0.057,0.949-0.547,0.894-1.097 c-0.014-0.131-0.019-0.264-0.02-0.39c0-0.083,0.003-0.166,0.007-0.248C8.72,44.059,8.772,43.728,8.86,43.402z"/> <path d="M44.698,27.81c-0.794-0.106-1.604-0.041-2.386,0.181c-0.532,0.149-0.841,0.702-0.69,1.233 c0.124,0.441,0.525,0.729,0.961,0.729c0.091,0,0.182-0.012,0.272-0.038c0.52-0.146,1.055-0.192,1.575-0.122 c0.562,0.07,1.052-0.311,1.125-0.857C45.629,28.387,45.245,27.884,44.698,27.81z"/> <path d="M46.688,32.764c-0.163,0.527,0.133,1.088,0.66,1.25c0.099,0.031,0.197,0.045,0.295,0.045c0.428,0,0.823-0.275,0.955-0.705 c0.099-0.318,0.16-0.641,0.183-0.963c0.005-0.083,0.008-0.167,0.008-0.25c0-0.468-0.086-0.937-0.255-1.392 c-0.192-0.519-0.771-0.781-1.285-0.59c-0.519,0.192-0.782,0.768-0.59,1.285c0.086,0.232,0.13,0.467,0.13,0.696l-0.003,0.117 C46.774,32.423,46.742,32.589,46.688,32.764z"/> <path d="M17.481,45.164c-0.586,0.275-1.183,0.53-1.774,0.759c-0.515,0.198-0.771,0.777-0.572,1.293 c0.153,0.396,0.531,0.64,0.933,0.64c0.12,0,0.242-0.021,0.36-0.067c0.635-0.245,1.275-0.519,1.903-0.813 c0.5-0.234,0.715-0.83,0.48-1.33C18.578,45.145,17.984,44.928,17.481,45.164z"/> <path d="M10.201,41.001c0.161,0,0.325-0.039,0.478-0.122c0.288-0.157,0.595-0.255,0.911-0.289c0.135-0.016,0.273-0.016,0.406,0.002 c0.563,0.073,1.05-0.313,1.122-0.86c0.072-0.548-0.313-1.05-0.86-1.122c-0.298-0.039-0.601-0.041-0.891-0.008 c-0.574,0.063-1.128,0.239-1.646,0.521c-0.485,0.265-0.664,0.871-0.399,1.356C9.504,40.813,9.847,41.001,10.201,41.001z"/> <path d="M9.993,48.842c0.216,0.056,0.436,0.098,0.654,0.124c0.256,0.031,0.512,0.047,0.769,0.047c0.313,0,0.627-0.022,0.94-0.062 c0.548-0.069,0.937-0.569,0.867-1.117s-0.567-0.934-1.117-0.867c-0.404,0.052-0.812,0.064-1.216,0.015 c-0.132-0.017-0.264-0.042-0.394-0.075c-0.535-0.143-1.08,0.181-1.22,0.716C9.139,48.158,9.459,48.704,9.993,48.842z"/> </g> <g> </g> <g> </g> <g> </g> <g> </g> <g> </g> <g> </g> <g> </g> <g> </g> <g> </g> <g> </g> <g> </g> <g> </g> <g> </g> <g> </g> <g> </g>
</svg>

<svg version="1.1" id="notification" x="0px" y="0px" viewBox="0 0 512 512" style="enable-background:new 0 0 512 512;" xml:space="preserve">
<g> <g> <path d="M467.819,431.851l-36.651-61.056c-16.896-28.181-25.835-60.437-25.835-93.312V224 c0-82.325-67.008-149.333-149.333-149.333S106.667,141.675,106.667,224v53.483c0,32.875-8.939,65.131-25.835,93.312 l-36.651,61.056c-1.984,3.285-2.027,7.403-0.149,10.731c1.899,3.349,5.461,5.419,9.301,5.419h405.333 c3.84,0,7.403-2.069,9.301-5.419C469.845,439.253,469.803,435.136,467.819,431.851z M72.171,426.667l26.944-44.907 C118.016,350.272,128,314.219,128,277.483V224c0-70.592,57.408-128,128-128s128,57.408,128,128v53.483 c0,36.736,9.984,72.789,28.864,104.277l26.965,44.907H72.171z"/> </g> </g> <g> <g> <path d="M256,0c-23.531,0-42.667,19.136-42.667,42.667v42.667C213.333,91.221,218.112,96,224,96s10.667-4.779,10.667-10.667 V42.667c0-11.776,9.557-21.333,21.333-21.333s21.333,9.557,21.333,21.333v42.667C277.333,91.221,282.112,96,288,96 s10.667-4.779,10.667-10.667V42.667C298.667,19.136,279.531,0,256,0z"/> </g> </g> <g> <g> <path d="M302.165,431.936c-3.008-5.077-9.515-6.741-14.613-3.819c-5.099,2.987-6.805,9.536-3.819,14.613 c2.773,4.715,4.288,10.368,4.288,15.936c0,17.643-14.357,32-32,32c-17.643,0-32-14.357-32-32c0-5.568,1.515-11.221,4.288-15.936 c2.965-5.099,1.259-11.627-3.819-14.613c-5.141-2.923-11.627-1.259-14.613,3.819c-4.715,8.064-7.211,17.301-7.211,26.731 C202.667,488.085,226.581,512,256,512s53.333-23.915,53.376-53.333C309.376,449.237,306.88,440,302.165,431.936z"/> </g> </g> <g> </g> <g> </g> <g> </g> <g> </g> <g> </g> <g> </g> <g> </g> <g> </g> <g> </g> <g> </g> <g> </g> <g> </g> <g> </g> <g> </g> <g> </g>
</svg>

<svg version="1.1" id="template-Driven-Forms" x="0px" y="0px" viewBox="0 0 434.2 434.2" style="enable-background:new 0 0 434.2 434.2;" xml:space="preserve">
<g> <path d="M341.3,229.9c0.2-67.2,0.5-134.4,0.7-201.6C238.4,28.5,134.7,28.8,31.1,29c0,126.3,0,252.7,0,379c47.7,0,95.4,0,143.1,0 c7.6,0.3,13.4,6.7,13.1,13.8c-0.3,6.3-5.5,11.7-12.3,12.4H23.4c-9.6,0-17.5-7.9-17.5-17.5V17.5C6,7.9,13.8,0,23.4,0h326.4 c9.6,0,17.5,7.9,17.5,17.5v212.7c-0.2,7-6,12.7-12.9,12.7C347.3,243,341.3,237.1,341.3,229.9z M410.5,265.6 c-1.9-4.9-7.1-9.6-13.4-8.9c-5.1,0.5-9.5,4.4-11,9.6c-33.5,36.9-67,73.8-100.4,110.8c-17.7-17.9-35.3-35.8-53-53.7 c-3.5-4.9-9.6-7.1-15.1-5.5c-5.2,1.5-8.8,5.9-9.7,11c-0.9,5.3,1.4,10.6,5.8,13.7l61.2,58.9c3.2,3.2,7.6,5,12.2,5c0.3,0,0.3,0,0.6,0 c4.7-0.3,9.3-2.3,12.2-5.8l107.8-120.1C411.4,276.4,412.4,270.6,410.5,265.6z M268.2,106.7H110.9c-9.6,0-17.5,5.7-17.5,12.7 s7.9,12.7,17.5,12.7h157.3c9.6,0,17.5-5.7,17.5-12.7S277.8,106.7,268.2,106.7z M285.7,215.6c0-7.1-7.9-12.9-17.5-12.9H110.9 c-9.6,0-17.5,5.8-17.5,12.9s7.9,12.9,17.5,12.9h157.3C277.8,228.5,285.7,222.7,285.7,215.6z M110.9,295.7 c-9.6,0-17.5,5.9-17.5,13.2s7.9,13.2,17.5,13.2h46.6c9.6,0,17.5-5.9,17.5-13.2s-7.9-13.2-17.5-13.2H110.9z"/> </g>
</svg>

<svg version="1.1" id="reactive-Forms" x="0px" y="0px" viewBox="0 0 434.2 434.2" style="enable-background:new 0 0 434.2 434.2;" xml:space="preserve">
<g> <path d="M349.3,229.9c0.2-67.2,0.5-134.4,0.7-201.6C246.4,28.5,142.7,28.8,39.1,29c0,126.3,0,252.7,0,379c47.7,0,95.4,0,143.1,0 c7.6,0.3,13.4,6.7,13.1,13.8c-0.3,6.3-5.5,11.7-12.3,12.4H31.4c-9.6,0-17.5-7.9-17.5-17.5V17.5C14,7.9,21.8,0,31.4,0h326.4 c9.6,0,17.5,7.9,17.5,17.5v212.7c-0.2,7-6,12.7-12.9,12.7C355.3,243,349.3,237.1,349.3,229.9z M418.5,265.6 c-1.9-4.9-7.1-9.6-13.4-8.9c-5.1,0.5-9.5,4.4-11,9.6c-33.5,36.9-67,73.8-100.4,110.8c-17.7-17.9-35.3-35.8-53-53.7 c-3.5-4.9-9.6-7.1-15.1-5.5c-5.2,1.5-8.8,5.9-9.7,11c-0.9,5.3,1.4,10.6,5.8,13.7l61.2,58.9c3.2,3.2,7.6,5,12.2,5c0.3,0,0.3,0,0.6,0 c4.7-0.3,9.3-2.3,12.2-5.8l107.8-120.1C419.4,276.4,420.4,270.6,418.5,265.6z M276.2,76.7H118.9c-9.6,0-17.5,5.7-17.5,12.7 s7.9,12.7,17.5,12.7h157.3c9.6,0,17.5-5.7,17.5-12.7S285.8,76.7,276.2,76.7z M293.7,215.6c0-7.1-7.9-12.9-17.5-12.9H118.9 c-9.6,0-17.5,5.8-17.5,12.9s7.9,12.9,17.5,12.9h157.3C285.8,228.5,293.7,222.7,293.7,215.6z M276.2,140.7H118.9 c-9.6,0-17.5,5.7-17.5,12.7s7.9,12.7,17.5,12.7h157.3c9.6,0,17.5-5.7,17.5-12.7S285.8,140.7,276.2,140.7z"/> </g>
</svg>

<svg version="1.1" id="filter-Table" x="0px" y="0px" viewBox="0 0 475.1 475.1" style="enable-background:new 0 0 475.1 475.1;" xml:space="preserve">
<g> <path d="M466.9,74.7c-8.4-9.1-19.3-9.7-21.3-9.8c-140.5-0.6-280.9-1.2-421.4-1.9c-3.1,0.8-9.5,3-15.4,8.8C3.4,77.2,1,82.9,0,85.9 c0,105,0,209.9,0,314.9c0,3.3,0.4,11.8,6,20.2c4.8,7.3,10.9,10.9,13.8,12.4c141.7-0.2,283.4-0.3,425-0.5c1.7,0.2,11.9,1.2,20.6-6.3 c9.3-8,9.6-19.3,9.6-20.9c0-103.3,0-206.6,0-310C475.1,93.3,474.7,83.2,466.9,74.7z M156.8,398.2c0,3.2-1,5.8-3.1,7.8 c-2,2-4.7,3.1-7.8,3.1H36.8c-3.2,0-5.8-1-7.8-3.1c-2-2-3.1-4.7-3.1-7.8v-65.5c0-3.2,1-5.8,3.1-7.8c2-2.1,4.7-3.1,7.8-3.1h109.1 c3.2,0,5.8,1,7.8,3.1c2,2,3.1,4.6,3.1,7.8L156.8,398.2L156.8,398.2z M157.2,288.7c0,3.2-1,5.8-3.1,7.9c-2.1,2.1-4.7,3.1-7.9,3.1 H36.5c-3.2,0-5.8-1-7.9-3.1c-2.1-2.1-3.1-4.7-3.1-7.9v-65.9c0-3.2,1-5.8,3.1-7.9c2.1-2.1,4.7-3.1,7.9-3.1h109.8 c3.2,0,5.8,1,7.9,3.1c2.1,2.1,3.1,4.7,3.1,7.9L157.2,288.7L157.2,288.7z M157.3,179.2c0,3.2-1,5.8-3.1,7.9 c-2.1,2.1-4.7,3.1-7.9,3.1H36.4c-3.2,0-5.8-1-7.9-3.1c-2.1-2.1-3.1-4.7-3.1-7.9v-66c0-3.2,1-5.8,3.1-7.9c2.1-2.1,4.7-3.1,7.9-3.1 h109.9c3.2,0,5.8,1,7.9,3.1c2.1,2.1,3.1,4.7,3.1,7.9L157.3,179.2L157.3,179.2z M301.7,397.5c0,3.1-1,5.7-3,7.7c-2,2-4.6,3-7.7,3 H184c-3.1,0-5.7-1-7.7-3c-2-2-3-4.6-3-7.7v-64.2c0-3.1,1-5.7,3-7.7c2-2,4.6-3,7.7-3h107c3.1,0,5.7,1,7.7,3c2,2,3,4.6,3,7.7 L301.7,397.5L301.7,397.5L301.7,397.5z M301.7,287.9c0,3.1-1,5.7-3,7.7c-2,2-4.6,3-7.7,3H184c-3.1,0-5.7-1-7.7-3c-2-2-3-4.6-3-7.7 v-64.2c0-3.1,1-5.7,3-7.7c2-2,4.6-3,7.7-3h107c3.1,0,5.7,1,7.7,3c2,2,3,4.6,3,7.7L301.7,287.9L301.7,287.9z M303.8,179.3 c0,3.2-1,5.9-3.1,7.9c-2.1,2.1-4.7,3.1-7.9,3.1H182.3c-3.2,0-5.9-1-7.9-3.1c-2.1-2.1-3.1-4.7-3.1-7.9V113c0-3.2,1-5.9,3.1-7.9 c2.1-2.1,4.7-3.1,7.9-3.1h110.5c3.2,0,5.9,1,7.9,3.1c2.1,2.1,3.1,4.7,3.1,7.9L303.8,179.3L303.8,179.3z M449.2,398.2 c0,3.2-1,5.8-3.1,7.8c-2.1,2-4.7,3.1-7.8,3.1H329.2c-3.2,0-5.8-1-7.8-3.1c-2-2-3.1-4.7-3.1-7.8v-65.5c0-3.2,1-5.8,3.1-7.8 c2-2.1,4.7-3.1,7.8-3.1h109.1c3.2,0,5.8,1,7.8,3.1c2,2,3.1,4.6,3.1,7.8V398.2z M449.6,288.7c0,3.2-1,5.8-3.1,7.9 c-2.1,2.1-4.7,3.1-7.9,3.1H328.8c-3.2,0-5.8-1-7.9-3.1c-2.1-2.1-3.1-4.7-3.1-7.9v-65.9c0-3.2,1-5.8,3.1-7.9 c2.1-2.1,4.7-3.1,7.9-3.1h109.8c3.2,0,5.8,1,7.9,3.1c2.1,2.1,3.1,4.7,3.1,7.9V288.7z M449.7,179.2c0,3.2-1,5.8-3.1,7.9 c-2.1,2.1-4.7,3.1-7.9,3.1H328.8c-3.2,0-5.8-1-7.9-3.1c-2.1-2.1-3.1-4.7-3.1-7.9v-66c0-3.2,1-5.8,3.1-7.9c2.1-2.1,4.7-3.1,7.9-3.1 h109.9c3.2,0,5.8,1,7.9,3.1c2.1,2.1,3.1,4.7,3.1,7.9V179.2z M-31.9,74.1"/> </g>
</svg>

<svg version="1.1" id="grid" x="0px" y="0px"
	 viewBox="0 0 512 512" style="enable-background:new 0 0 512 512;" xml:space="preserve">
<path d="M2.3,54.5v181.1H240V54.5H2.3z M214,207H28.3V83.2H214V207z M2.3,273.5v181.1H240V273.5H2.3z M214,426H28.3V302.2H214V426z
	 M272.3,54.5v181.1H510V54.5H272.3z M484,207H298.3V83.2H484V207z M272.3,273.5v181.1H510V273.5H272.3z M484,426H298.3V302.2H484
	V426z"/>
</svg>

<svg version="1.1" id="survay-Forms" x="0px" y="0px" viewBox="0 0 512 512" style="enable-background:new 0 0 512 512;" xml:space="preserve">
<g> <g> <g> <circle cx="53.333" cy="74.667" r="10.667"/> <circle cx="96" cy="74.667" r="10.667"/> <circle cx="138.667" cy="74.667" r="10.667"/> <path d="M117.333,234.667H352c5.896,0,10.667-4.771,10.667-10.667s-4.771-10.667-10.667-10.667H117.333 c-5.896,0-10.667,4.771-10.667,10.667S111.438,234.667,117.333,234.667z"/> <path d="M245.333,341.333h-128c-5.896,0-10.667,4.771-10.667,10.667c0,5.896,4.771,10.667,10.667,10.667h128 c5.896,0,10.667-4.771,10.667-10.667C256,346.104,251.229,341.333,245.333,341.333z"/> <path d="M471.167,149.333c-0.618,0-1.217,0.155-1.833,0.184V64c0-23.531-19.146-42.667-42.667-42.667h-384 C19.146,21.333,0,40.469,0,64v384c0,23.531,19.146,42.667,42.667,42.667h384c23.521,0,42.667-19.135,42.667-42.667V249.745 l30.708-30.703c0,0,0,0,0-0.01c7.604-7.604,11.958-18.125,11.958-28.865C512,167.646,493.688,149.333,471.167,149.333z M21.333,64c0-11.76,9.563-21.333,21.333-21.333h384C438.438,42.667,448,52.24,448,64v42.667H21.333V64z M448,448 c0,11.76-9.563,21.333-21.333,21.333h-384c-11.771,0-21.333-9.573-21.333-21.333V128H448v28.62 c-2.025,1.392-3.962,2.923-5.708,4.672l-116.06,116.042H117.333c-5.896,0-10.667,4.771-10.667,10.667s4.771,10.667,10.667,10.667 h191.785l-10.243,51.24c-0.708,3.5,0.396,7.115,2.917,9.635c2.021,2.021,4.75,3.125,7.542,3.125c0.688,0,1.396-0.073,2.083-0.208 l53.313-10.667c2.083-0.417,3.979-1.427,5.458-2.917L448,271.076V448z M357.396,331.51l-34.458,6.896l6.896-34.5l96.828-96.828 l27.587,27.587L357.396,331.51z M484.958,203.958l-15.625,15.625l-27.589-27.589l15.63-15.63 c3.625-3.615,8.646-5.698,13.792-5.698c10.75,0,19.5,8.75,19.5,19.5C490.667,195.292,488.583,200.323,484.958,203.958z"/> </g> </g> </g> <g> </g> <g> </g> <g> </g> <g> </g> <g> </g> <g> </g> <g> </g> <g> </g> <g> </g> <g> </g> <g> </g> <g> </g> <g> </g> <g> </g> <g> </g>
</svg>

<svg version="1.1" id="stepper" x="0px" y="0px" viewBox="0 0 60 60" style="enable-background:new 0 0 60 60;" xml:space="preserve">
<g> <path d="M18,26c-2.206,0-4,1.794-4,4s1.794,4,4,4s4-1.794,4-4S20.206,26,18,26z"/> <path d="M30,26c-2.206,0-4,1.794-4,4s1.794,4,4,4s4-1.794,4-4S32.206,26,30,26z"/> <path d="M46,30c0-2.206-1.794-4-4-4s-4,1.794-4,4s1.794,4,4,4S46,32.206,46,30z"/> <path d="M2.414,30l13.293-13.293c0.391-0.391,0.391-1.023,0-1.414s-1.023-0.391-1.414,0l-14,14c-0.391,0.391-0.391,1.023,0,1.414 l14,14C14.488,44.902,14.744,45,15,45s0.512-0.098,0.707-0.293c0.391-0.391,0.391-1.023,0-1.414L2.414,30z"/> <path d="M59.707,29.293l-14-14c-0.391-0.391-1.023-0.391-1.414,0s-0.391,1.023,0,1.414L57.586,30L44.293,43.293 c-0.391,0.391-0.391,1.023,0,1.414C44.488,44.902,44.744,45,45,45s0.512-0.098,0.707-0.293l14-14 C60.098,30.316,60.098,29.684,59.707,29.293z"/> </g> <g> </g> <g> </g> <g> </g> <g> </g> <g> </g> <g> </g> <g> </g> <g> </g> <g> </g> <g> </g> <g> </g> <g> </g> <g> </g> <g> </g> <g> </g>
</svg>

<svg version="1.1" id="icons" x="0px" y="0px" viewBox="0 0 59.912 59.912" style="enable-background:new 0 0 59.912 59.912;" xml:space="preserve">
<path d="M59.603,23.397c-0.241-0.28-0.593-0.441-0.963-0.441H56V8.724c0-0.975-0.793-1.768-1.768-1.768H23.566l-2.485-4.141 c-0.317-0.53-0.898-0.859-1.516-0.859H5.767C4.793,1.956,4,2.749,4,3.724v19.232H1.271c-0.37,0-0.722,0.161-0.963,0.441 c-0.242,0.28-0.35,0.651-0.294,1.02l2.203,14.539H2.217l2.121,14h0l0.594,3.922c0.097,0.625,0.625,1.078,1.257,1.078h47.533 c0.632,0,1.16-0.453,1.257-1.081l0.594-3.919h0.001l2.121-14h0l2.204-14.541C59.953,24.049,59.845,23.678,59.603,23.397z M6,3.956 h13.434l2.485,4.141c0.317,0.53,0.898,0.859,1.516,0.859H54v14h-1v-4h-1v-3h-1v-3H9v3H8v3H7v4H6V3.956z M9,20.956h42v2H9V20.956z M10,17.956h40v1H10V17.956z M49,15.956H11v-1h38V15.956z M53.853,50.956h-5.527l6.515-6.515L53.853,50.956z M55.346,41.108 l-9.848,9.848h-5.172l10-10h5.043L55.346,41.108z M37.498,50.956h-5.172l10-10h5.172L37.498,50.956z M29.498,50.956h-5.172l10-10 h5.172L29.498,50.956z M21.498,50.956h-5.172l10-10h5.172L21.498,50.956z M13.498,50.956H8.326l10-10h5.172L13.498,50.956z M5.985,50.469l-0.549-3.623l5.89-5.89h4.172L5.985,50.469z M5.063,44.391L4.68,41.865l-0.138-0.909h3.955L5.063,44.391z M53.096,55.956H6.815l-0.454-3h47.19L53.096,55.956z M55.672,38.956H4.24l-2.121-14H4h3h46h3h1.793L55.672,38.956z"/> <g> </g> <g> </g> <g> </g> <g> </g> <g> </g> <g> </g> <g> </g> <g> </g> <g> </g> <g> </g> <g> </g> <g> </g> <g> </g> <g> </g> <g> </g>
</svg>

<svg version="1.1" id="sortable-Table" x="0px" y="0px" viewBox="0 0 475.1 475.1" style="enable-background:new 0 0 475.1 475.1;" xml:space="preserve">
<g> <path d="M466.9,74.7c-8.4-9.1-19.3-9.7-21.3-9.8C305.1,64.3,164.7,63.7,24.2,63c-3.1,0.8-9.5,3-15.4,8.8C3.4,77.2,1,82.9,0,85.9 c0,105,0,209.9,0,314.9c0,3.3,0.4,11.8,6,20.2c4.8,7.3,10.9,10.9,13.8,12.4c141.7-0.2,283.4-0.3,425-0.5c1.7,0.2,11.9,1.2,20.6-6.3 c9.3-8,9.6-19.3,9.6-20.9c0-103.3,0-206.6,0-310C475.1,93.3,474.7,83.2,466.9,74.7z M156.8,398.2c0,3.2-1,5.8-3.1,7.8 c-2,2-4.7,3.1-7.8,3.1H36.8c-3.2,0-5.8-1-7.8-3.1c-2-2-3.1-4.7-3.1-7.8v-65.5c0-3.2,1-5.8,3.1-7.8c2-2.1,4.7-3.1,7.8-3.1h109.1 c3.2,0,5.8,1,7.8,3.1c2,2,3.1,4.6,3.1,7.8V398.2L156.8,398.2z M157.2,288.7c0,3.2-1,5.8-3.1,7.9s-4.7,3.1-7.9,3.1H36.5 c-3.2,0-5.8-1-7.9-3.1s-3.1-4.7-3.1-7.9v-65.9c0-3.2,1-5.8,3.1-7.9c2.1-2.1,4.7-3.1,7.9-3.1h109.8c3.2,0,5.8,1,7.9,3.1 c2.1,2.1,3.1,4.7,3.1,7.9L157.2,288.7L157.2,288.7z M449.2,179.2c-0.3,1.6-1.4,5.3-4.8,8.4c-5.8,5.2-13.3,3.9-14.2,3.7 c-129.9,0-259.9,0-389.8,0c-1,0-6.6,0.2-11-4.1c-3-3-3.8-6.6-4-7.9v-66c0.2-1.5,1-5.1,4-8.2c4.8-5,11.4-4.7,12.4-4.6 c130.4-0.2,260.8-0.4,391.2-0.6c1.4,0,6.5,0.3,11,4.3c3.8,3.4,4.9,7.6,5.3,9.1v65.9H449.2z M301.7,397.5c0,3.1-1,5.7-3,7.7 s-4.6,3-7.7,3H184c-3.1,0-5.7-1-7.7-3s-3-4.6-3-7.7v-64.2c0-3.1,1-5.7,3-7.7s4.6-3,7.7-3h107c3.1,0,5.7,1,7.7,3s3,4.6,3,7.7V397.5 L301.7,397.5L301.7,397.5z M301.7,287.9c0,3.1-1,5.7-3,7.7s-4.6,3-7.7,3H184c-3.1,0-5.7-1-7.7-3s-3-4.6-3-7.7v-64.2 c0-3.1,1-5.7,3-7.7s4.6-3,7.7-3c35.7,0,71.3,0,107,0c1,0,3.5,0.1,5.7,1.5c1.1,0.6,1.9,1.4,2,1.5c2,2,3,4.6,3,7.7V287.9z M449.2,398.2c0,3.2-1,5.8-3.1,7.8s-4.7,3.1-7.8,3.1H329.2c-3.2,0-5.8-1-7.8-3.1c-2-2-3.1-4.7-3.1-7.8v-65.5c0-3.2,1-5.8,3.1-7.8 c2-2.1,4.7-3.1,7.8-3.1h109.1c3.2,0,5.8,1,7.8,3.1c2,2,3.1,4.6,3.1,7.8V398.2z M449.6,288.7c0,3.2-1,5.8-3.1,7.9s-4.7,3.1-7.9,3.1 H328.8c-3.2,0-5.8-1-7.9-3.1s-3.1-4.7-3.1-7.9v-65.9c0-3.2,1-5.8,3.1-7.9c2.1-2.1,4.7-3.1,7.9-3.1h109.8c3.2,0,5.8,1,7.9,3.1 s3.1,4.7,3.1,7.9L449.6,288.7L449.6,288.7z M287.4,30.9 M423.9,144.6c-1.9-1.2-4.7-0.5-5.8,1.8c-6.3,6.3-12.7,12.7-19,19 c0.1-15.1,0.2-30.2,0.3-45.3c-0.8-1.8-2.7-2.9-4.6-2.8c-1.7,0.1-3.2,1.2-4,2.8c0,15.1,0,30.2,0,45.3c-6.9-6.8-13.9-13.7-20.8-20.5 c-1.6-0.6-3.4-0.2-4.6,1c-1.2,1.2-1.5,3-0.9,4.6l28.4,28.4c0.5,0.5,1.1,0.7,1.7,0.7c0.6,0,1.2-0.2,1.7-0.7l28.4-28.4 C426.2,148.6,425.7,145.8,423.9,144.6z"/> </g>
</svg>

<svg version="1.1" id="table-Inline-Edit" x="0px" y="0px" viewBox="0 0 475.1 475.1" style="enable-background:new 0 0 475.1 475.1;" xml:space="preserve">
<g> <path d="M466.9,74.7c-8.4-9.1-19.3-9.7-21.3-9.8C305.1,64.3,164.7,63.7,24.2,63c-3.1,0.8-9.5,3-15.4,8.8C3.4,77.2,1,82.9,0,85.9 c0,105,0,209.9,0,314.9c0,3.3,0.4,11.8,6,20.2c4.8,7.3,10.9,10.9,13.8,12.4c141.7-0.2,283.4-0.3,425-0.5c1.7,0.2,11.9,1.2,20.6-6.3 c9.3-8,9.6-19.3,9.6-20.9c0-103.3,0-206.6,0-310C475.1,93.3,474.7,83.2,466.9,74.7z M156.8,398.2c0,3.2-1,5.8-3.1,7.8 c-2,2-4.7,3.1-7.8,3.1H36.8c-3.2,0-5.8-1-7.8-3.1c-2-2-3.1-4.7-3.1-7.8v-65.5c0-3.2,1-5.8,3.1-7.8c2-2.1,4.7-3.1,7.8-3.1h109.1 c3.2,0,5.8,1,7.8,3.1c2,2,3.1,4.6,3.1,7.8V398.2L156.8,398.2z M157.2,288.7c0,3.2-1,5.8-3.1,7.9s-4.7,3.1-7.9,3.1H36.5 c-3.2,0-5.8-1-7.9-3.1s-3.1-4.7-3.1-7.9v-65.9c0-3.2,1-5.8,3.1-7.9c2.1-2.1,4.7-3.1,7.9-3.1h109.8c3.2,0,5.8,1,7.9,3.1 c2.1,2.1,3.1,4.7,3.1,7.9L157.2,288.7L157.2,288.7z M449.2,179.2c-0.3,1.6-1.4,5.3-4.8,8.4c-5.8,5.2-13.3,3.9-14.2,3.7 c-129.9,0-259.9,0-389.8,0c-1,0-6.6,0.2-11-4.1c-3-3-3.8-6.6-4-7.9v-66c0.2-1.5,1-5.1,4-8.2c4.8-5,11.4-4.7,12.4-4.6 c130.4-0.2,260.8-0.4,391.2-0.6c1.4,0,6.5,0.3,11,4.3c3.8,3.4,4.9,7.6,5.3,9.1V179.2z M301.7,397.5c0,3.1-1,5.7-3,7.7s-4.6,3-7.7,3 H184c-3.1,0-5.7-1-7.7-3s-3-4.6-3-7.7v-64.2c0-3.1,1-5.7,3-7.7s4.6-3,7.7-3h107c3.1,0,5.7,1,7.7,3s3,4.6,3,7.7V397.5L301.7,397.5 L301.7,397.5z M301.7,287.9c0,3.1-1,5.7-3,7.7s-4.6,3-7.7,3H184c-3.1,0-5.7-1-7.7-3s-3-4.6-3-7.7v-64.2c0-3.1,1-5.7,3-7.7 s4.6-3,7.7-3c35.7,0,71.3,0,107,0c1,0,3.5,0.1,5.7,1.5c1.1,0.6,1.9,1.4,2,1.5c2,2,3,4.6,3,7.7V287.9z M449.2,398.2 c0,3.2-1,5.8-3.1,7.8s-4.7,3.1-7.8,3.1H329.2c-3.2,0-5.8-1-7.8-3.1c-2-2-3.1-4.7-3.1-7.8v-65.5c0-3.2,1-5.8,3.1-7.8 c2-2.1,4.7-3.1,7.8-3.1h109.1c3.2,0,5.8,1,7.8,3.1c2,2,3.1,4.6,3.1,7.8V398.2z M449.6,288.7c0,3.2-1,5.8-3.1,7.9s-4.7,3.1-7.9,3.1 H328.8c-3.2,0-5.8-1-7.9-3.1s-3.1-4.7-3.1-7.9v-65.9c0-3.2,1-5.8,3.1-7.9c2.1-2.1,4.7-3.1,7.9-3.1h109.8c3.2,0,5.8,1,7.9,3.1 s3.1,4.7,3.1,7.9L449.6,288.7L449.6,288.7z M477,243.1 M61.9,169.1c0,2.3-0.1,4.2-0.5,5.7c-0.3,1.5-0.7,2.2-1.2,2.2H43.9 c-0.5,0-0.9-0.7-1.2-2.2c-0.3-1.5-0.5-3.4-0.5-5.7v-47.2c0-2.3,0.1-4.2,0.5-5.7c0.3-1.5,0.7-2.2,1.2-2.2h16.4 c0.5,0,0.9,0.7,1.2,2.2c0.3,1.5,0.5,3.4,0.5,5.7L61.9,169.1L61.9,169.1z"/> </g>
</svg>
<svg version="1.1" id="login" x="0px" y="0px" viewBox="0 0 475.1 475.1" style="enable-background:new 0 0 475.1 475.1;" xml:space="preserve">
<g id="surface1">
<path d="M 50 750 L 650 750 C 677.613281 750 700 727.613281 700 700 L 700 662.5 C 700 655.59375 694.40625 650 687.5 650 L 662.5 650 L 662.5 450 L 637.5 450 L 637.5 650 L 612.5 650 L 612.5 450 L 587.5 450 L 587.5 650 L 427.949219 650 C 414.640625 649.953125 402.460938 657.480469 396.554688 669.414062 C 394.851562 672.855469 391.335938 675.03125 387.5 675 L 315.449219 675 C 311.617188 675.023438 308.105469 672.851562 306.414062 669.414062 C 300.5 657.480469 288.320312 649.953125 275 650 L 112.5 650 L 112.5 337.5 C 112.5 330.59375 118.09375 325 125 325 L 350 325 L 350 300 L 125 300 C 104.292969 300 87.5 316.792969 87.5 337.5 L 87.5 650 L 62.5 650 L 62.5 312.5 C 62.5 291.792969 79.292969 275 100 275 L 350 275 L 350 250 L 100 250 C 65.5 250.042969 37.542969 278 37.5 312.5 L 37.5 650 L 12.5 650 C 5.59375 650 0 655.59375 0 662.5 L 0 700 C 0 727.613281 22.386719 750 50 750 Z M 25 675 L 275 675 C 278.832031 674.980469 282.34375 677.144531 284.054688 680.570312 C 289.953125 692.507812 302.140625 700.046875 315.449219 700 L 387.5 700 C 400.820312 700.046875 413.007812 692.507812 418.914062 680.570312 C 420.605469 677.140625 424.121094 674.976562 427.949219 675 L 675 675 L 675 700 C 675 713.808594 663.808594 725 650 725 L 50 725 C 36.191406 725 25 713.808594 25 700 Z M 25 675 " style=" stroke:none;fill-rule:nonzero;fill:#0088D1;fill-opacity:1;" />
<path d="M 162.5 462.5 L 162.5 562.5 C 162.5 569.40625 168.09375 575 175 575 L 525 575 C 531.90625 575 537.5 569.40625 537.5 562.5 L 537.5 462.5 C 537.5 455.59375 531.90625 450 525 450 L 175 450 C 168.09375 450 162.5 455.59375 162.5 462.5 Z M 187.5 475 L 512.5 475 L 512.5 550 L 187.5 550 Z M 187.5 475 " style=" stroke:none;fill-rule:nonzero;fill:#0088D1;fill-opacity:1;" />
<path d="M 212.5 500 L 237.5 500 L 237.5 525 L 212.5 525 Z M 212.5 500 " style=" stroke:none;fill-rule:nonzero;fill:#0088D1;fill-opacity:1;" />
<path d="M 262.5 500 L 287.5 500 L 287.5 525 L 262.5 525 Z M 262.5 500 " style=" stroke:none;fill-rule:nonzero;fill:#0088D1;fill-opacity:1;" />
<path d="M 312.5 500 L 337.5 500 L 337.5 525 L 312.5 525 Z M 312.5 500 " style=" stroke:none;fill-rule:nonzero;fill:#0088D1;fill-opacity:1;" />
<path d="M 362.5 500 L 387.5 500 L 387.5 525 L 362.5 525 Z M 362.5 500 " style=" stroke:none;fill-rule:nonzero;fill:#0088D1;fill-opacity:1;" />
<path d="M 712.5 187.964844 L 712.5 150 C 712.5 67.15625 645.34375 0 562.5 0 C 479.65625 0 412.5 67.15625 412.5 150 L 412.5 187.964844 C 391.230469 190.230469 375.074219 208.132812 375 229.523438 L 375 382.976562 C 375.03125 406.175781 393.835938 424.980469 417.035156 425 L 707.964844 425 C 731.164062 424.980469 749.96875 406.175781 750 382.976562 L 750 229.523438 C 749.925781 208.132812 733.769531 190.230469 712.5 187.964844 Z M 437.5 150 C 437.5 80.960938 493.460938 25 562.5 25 C 631.539062 25 687.5 80.960938 687.5 150 L 687.5 187.5 L 662.5 187.5 L 662.5 150 C 662.5 94.769531 617.730469 50 562.5 50 C 507.269531 50 462.5 94.769531 462.5 150 L 462.5 187.5 L 437.5 187.5 Z M 487.5 187.5 L 487.5 150 C 487.5 108.585938 521.085938 75 562.5 75 C 603.914062 75 637.5 108.585938 637.5 150 L 637.5 187.5 Z M 725 382.976562 C 724.992188 392.378906 717.363281 399.996094 707.964844 400 L 417.035156 400 C 407.636719 399.996094 400.007812 392.378906 400 382.976562 L 400 229.523438 C 400.007812 220.121094 407.636719 212.503906 417.035156 212.5 L 707.964844 212.5 C 717.363281 212.503906 724.992188 220.121094 725 229.523438 Z M 725 382.976562 " style=" stroke:none;fill-rule:nonzero;fill:#0088D1;fill-opacity:1;" />
<path d="M 562.5 262.5 C 544.257812 262.460938 528.652344 275.589844 525.554688 293.574219 C 522.464844 311.554688 532.792969 329.140625 550 335.199219 L 550 362.5 L 575 362.5 L 575 335.199219 C 592.207031 329.140625 602.535156 311.554688 599.445312 293.574219 C 596.347656 275.589844 580.742188 262.460938 562.5 262.5 Z M 562.5 312.5 C 555.59375 312.5 550 306.90625 550 300 C 550 293.09375 555.59375 287.5 562.5 287.5 C 569.40625 287.5 575 293.09375 575 300 C 575 306.90625 569.40625 312.5 562.5 312.5 Z M 562.5 312.5 " style=" stroke:none;fill-rule:nonzero;fill:#0088D1;fill-opacity:1;" />
<path d="M 225 200 L 250 200 L 250 225 L 225 225 Z M 225 200 " style=" stroke:none;fill-rule:nonzero;fill:#0088D1;fill-opacity:1;" />
<path d="M 225 150 L 250 150 L 250 175 L 225 175 Z M 225 150 " style=" stroke:none;fill-rule:nonzero;fill:#0088D1;fill-opacity:1;" />
<path d="M 225 100 L 250 100 L 250 125 L 225 125 Z M 225 100 " style=" stroke:none;fill-rule:nonzero;fill:#0088D1;fill-opacity:1;" />
<path d="M 225 50 L 250 50 L 250 75 L 225 75 Z M 225 50 " style=" stroke:none;fill-rule:nonzero;fill:#0088D1;fill-opacity:1;" />
<path d="M 275 50 L 300 50 L 300 75 L 275 75 Z M 275 50 " style=" stroke:none;fill-rule:nonzero;fill:#0088D1;fill-opacity:1;" />
<path d="M 325 50 L 350 50 L 350 75 L 325 75 Z M 325 50 " style=" stroke:none;fill-rule:nonzero;fill:#0088D1;fill-opacity:1;" />
<path d="M 375 50 L 400 50 L 400 75 L 375 75 Z M 375 50 " style=" stroke:none;fill-rule:nonzero;fill:#0088D1opacity:1;" />
</g>
</svg>

<svg version="1.1" id="forgot" x="0px" y="0px" viewBox="0 0 512 512" style="enable-background:new 0 0 512 512;" xml:space="preserve">
<g>
	<g>
		<g>
			<circle cx="277.937" cy="346" r="20"/>
			<path d="M344.937,471.999h-249c-22.056,0-40-17.944-40-40v-164c0-22.056,17.944-40,40-40h288c4.554,0,8.167,0.402,11.047,1.227
				c10.618,3.042,21.692-3.1,24.735-13.718c3.042-10.618-3.1-21.692-13.718-24.735c-6.513-1.866-13.73-2.773-22.064-2.773H359.9
				v-70.534C359.9,52.695,306.068,0,239.9,0s-120,52.695-120,117.466V188H95.937c-44.112,0-80,35.888-80,80v164
				c0,44.112,35.888,80,80,80h249c11.046,0,20-8.954,20-20C364.937,480.954,355.983,472,344.937,471.999z M159.9,117.466
				c0-42.715,35.888-77.466,80-77.466s80,34.751,80,77.466V188h-160V117.466z"/>
			<circle cx="202.937" cy="346" r="20"/>
			<path d="M496.046,331.21c-0.438-38.789-32.13-70.21-71.021-70.21C385.863,261,354,292.862,354,332.025c0,11.046,8.954,20,20,20
				c11.046,0,20-8.954,20-20C394,314.918,407.918,301,425.026,301c17.108,0,31.025,13.918,31.025,31.025
				c0,0.182,0.002,0.363,0.007,0.543c-0.206,12.247-7.563,23.211-18.864,28.035c-19.541,8.345-32.168,27.618-32.168,49.101V427
				c0,11.046,8.954,20,20,20c11.046,0,20-8.954,20-20v-17.296c0-5.438,3.092-10.271,7.875-12.313
				c26.227-11.196,43.169-36.855,43.162-65.37C496.063,331.749,496.057,331.479,496.046,331.21z"/>
			<circle cx="424.937" cy="492" r="20"/>
			<circle cx="127.937" cy="346" r="20"/>
		</g>
	</g>
</g>
<g>
</g>
<g>
</g>
<g>
</g>
<g>
</g>
<g>
</g>
<g>
</g>
<g>
</g>
<g>
</g>
<g>
</g>
<g>
</g>
<g>
</g>
<g>
</g>
<g>
</g>
<g>
</g>
<g>
</g>
</svg>
<svg version="1.1" id="pagination" x="0px" y="0px" viewBox="0 0 58 58" style="enable-background:new 0 0 58 58;" xml:space="preserve">
<g>
	<path d="M9.2,38.7c5.1,0,9.2-4.1,9.2-8.9s-4.1-8.9-9.2-8.9S0,24.9,0,29.8C0,34.9,4.1,38.7,9.2,38.7z M30.3,36.7
		c4,0,7.1-3.2,7.1-6.9s-3.2-6.9-7.1-6.9s-7.1,3.2-7.1,6.9C23.2,33.7,26.4,36.7,30.3,36.7z M30.3,26.8c1.8,0,3.2,1.4,3.2,3
		c0,1.8-1.4,3-3.2,3s-3.2-1.4-3.2-3S28.6,26.8,30.3,26.8z M50.9,36.7c4,0,7.1-3.2,7.1-6.9s-3.2-6.9-7.1-6.9s-7.1,3.2-7.1,6.9
		C44,33.7,47.1,36.7,50.9,36.7z M50.9,26.8c1.8,0,3.2,1.4,3.2,3c0,1.8-1.4,3-3.2,3c-1.8,0-3.2-1.4-3.2-3S49.3,26.8,50.9,26.8z"/>
</g>
</svg>

<svg version="1.1" id="pivot-Table" x="0px" y="0px" viewBox="0 0 475.1 475.1" style="enable-background:new 0 0 475.1 475.1;" xml:space="preserve">
<g>
	<path d="M466.9,74.7c-8.4-9.1-19.3-9.7-21.3-9.8c-140.5-0.6-280.9-1.2-421.4-1.9c-3.1,0.8-9.5,3-15.4,8.8C3.4,77.2,1,82.9,0,85.9
		c0,105,0,209.9,0,314.9c0,3.3,0.4,11.8,6,20.2c4.8,7.3,10.9,10.9,13.8,12.4c141.7-0.2,283.4-0.3,425-0.5c1.7,0.2,11.9,1.2,20.6-6.3
		c9.3-8,9.6-19.3,9.6-20.9c0-103.3,0-206.6,0-310C475.1,93.3,474.7,83.2,466.9,74.7z M156.8,398.2c0,3.2-1,5.8-3.1,7.8
		c-2,2-4.7,3.1-7.8,3.1H36.8c-3.2,0-5.8-1-7.8-3.1c-2-2-3.1-4.7-3.1-7.8v-65.5c0-3.2,1-5.8,3.1-7.8c2-2.1,4.7-3.1,7.8-3.1h109.1
		c3.2,0,5.8,1,7.8,3.1c2,2,3.1,4.6,3.1,7.8L156.8,398.2L156.8,398.2z M157.2,288.7c0,3.2-1,5.8-3.1,7.9c-2.1,2.1-4.7,3.1-7.9,3.1
		H36.5c-3.2,0-5.8-1-7.9-3.1c-2.1-2.1-3.1-4.7-3.1-7.9v-65.9c0-3.2,1-5.8,3.1-7.9c2.1-2.1,4.7-3.1,7.9-3.1h109.8
		c3.2,0,5.8,1,7.9,3.1c2.1,2.1,3.1,4.7,3.1,7.9L157.2,288.7L157.2,288.7z M157.3,179.2c0,3.2-1,5.8-3.1,7.9
		c-2.1,2.1-4.7,3.1-7.9,3.1H36.4c-3.2,0-5.8-1-7.9-3.1c-2.1-2.1-3.1-4.7-3.1-7.9v-66c0-3.2,1-5.8,3.1-7.9c2.1-2.1,4.7-3.1,7.9-3.1
		h109.9c3.2,0,5.8,1,7.9,3.1c2.1,2.1,3.1,4.7,3.1,7.9L157.3,179.2L157.3,179.2z M301.7,397.5c0,3.1-1,5.7-3,7.7c-2,2-4.6,3-7.7,3
		H184c-3.1,0-5.7-1-7.7-3c-2-2-3-4.6-3-7.7v-64.2c0-3.1,1-5.7,3-7.7c2-2,4.6-3,7.7-3h107c3.1,0,5.7,1,7.7,3c2,2,3,4.6,3,7.7
		L301.7,397.5L301.7,397.5L301.7,397.5z M301.7,287.9c0,3.1-1,5.7-3,7.7c-2,2-4.6,3-7.7,3H184c-3.1,0-5.7-1-7.7-3c-2-2-3-4.6-3-7.7
		v-64.2c0-3.1,1-5.7,3-7.7c2-2,4.6-3,7.7-3h107c3.1,0,5.7,1,7.7,3c2,2,3,4.6,3,7.7L301.7,287.9L301.7,287.9z M303.8,179.3
		c0,3.2-1,5.9-3.1,7.9c-2.1,2.1-4.7,3.1-7.9,3.1H182.3c-3.2,0-5.9-1-7.9-3.1c-2.1-2.1-3.1-4.7-3.1-7.9V113c0-3.2,1-5.9,3.1-7.9
		c2.1-2.1,4.7-3.1,7.9-3.1h110.5c3.2,0,5.9,1,7.9,3.1c2.1,2.1,3.1,4.7,3.1,7.9L303.8,179.3L303.8,179.3z M449.2,398.2
		c0,3.2-1,5.8-3.1,7.8c-2.1,2-4.7,3.1-7.8,3.1H329.2c-3.2,0-5.8-1-7.8-3.1c-2-2-3.1-4.7-3.1-7.8v-65.5c0-3.2,1-5.8,3.1-7.8
		c2-2.1,4.7-3.1,7.8-3.1h109.1c3.2,0,5.8,1,7.8,3.1c2,2,3.1,4.6,3.1,7.8V398.2z M449.6,288.7c0,3.2-1,5.8-3.1,7.9
		c-2.1,2.1-4.7,3.1-7.9,3.1H328.8c-3.2,0-5.8-1-7.9-3.1c-2.1-2.1-3.1-4.7-3.1-7.9v-65.9c0-3.2,1-5.8,3.1-7.9
		c2.1-2.1,4.7-3.1,7.9-3.1h109.8c3.2,0,5.8,1,7.9,3.1c2.1,2.1,3.1,4.7,3.1,7.9V288.7z M449.7,179.2c0,3.2-1,5.8-3.1,7.9
		c-2.1,2.1-4.7,3.1-7.9,3.1H328.8c-3.2,0-5.8-1-7.9-3.1c-2.1-2.1-3.1-4.7-3.1-7.9v-66c0-3.2,1-5.8,3.1-7.9c2.1-2.1,4.7-3.1,7.9-3.1
		h109.9c3.2,0,5.8,1,7.9,3.1c2.1,2.1,3.1,4.7,3.1,7.9V179.2z M-31.9,74.1"/>
</g>
</svg>

<svg version="1.1" id="datagrid" x="0px" y="0px" viewBox="0 0 475.1 475.1" style="enable-background:new 0 0 475.1 475.1;" xml:space="preserve">
<g>
	<path d="M466.9,74.7c-8.4-9.1-19.3-9.7-21.3-9.8c-140.5-0.6-280.9-1.2-421.4-1.9c-3.1,0.8-9.5,3-15.4,8.8C3.4,77.2,1,82.9,0,85.9
		c0,105,0,209.9,0,314.9c0,3.3,0.4,11.8,6,20.2c4.8,7.3,10.9,10.9,13.8,12.4c141.7-0.2,283.4-0.3,425-0.5c1.7,0.2,11.9,1.2,20.6-6.3
		c9.3-8,9.6-19.3,9.6-20.9c0-103.3,0-206.6,0-310C475.1,93.3,474.7,83.2,466.9,74.7z M156.8,398.2c0,3.2-1,5.8-3.1,7.8
		c-2,2-4.7,3.1-7.8,3.1H36.8c-3.2,0-5.8-1-7.8-3.1c-2-2-3.1-4.7-3.1-7.8v-65.5c0-3.2,1-5.8,3.1-7.8c2-2.1,4.7-3.1,7.8-3.1h109.1
		c3.2,0,5.8,1,7.8,3.1c2,2,3.1,4.6,3.1,7.8L156.8,398.2L156.8,398.2z M157.2,288.7c0,3.2-1,5.8-3.1,7.9c-2.1,2.1-4.7,3.1-7.9,3.1
		H36.5c-3.2,0-5.8-1-7.9-3.1c-2.1-2.1-3.1-4.7-3.1-7.9v-65.9c0-3.2,1-5.8,3.1-7.9c2.1-2.1,4.7-3.1,7.9-3.1h109.8
		c3.2,0,5.8,1,7.9,3.1c2.1,2.1,3.1,4.7,3.1,7.9L157.2,288.7L157.2,288.7z M157.3,179.2c0,3.2-1,5.8-3.1,7.9
		c-2.1,2.1-4.7,3.1-7.9,3.1H36.4c-3.2,0-5.8-1-7.9-3.1c-2.1-2.1-3.1-4.7-3.1-7.9v-66c0-3.2,1-5.8,3.1-7.9c2.1-2.1,4.7-3.1,7.9-3.1
		h109.9c3.2,0,5.8,1,7.9,3.1c2.1,2.1,3.1,4.7,3.1,7.9L157.3,179.2L157.3,179.2z M301.7,397.5c0,3.1-1,5.7-3,7.7c-2,2-4.6,3-7.7,3
		H184c-3.1,0-5.7-1-7.7-3c-2-2-3-4.6-3-7.7v-64.2c0-3.1,1-5.7,3-7.7c2-2,4.6-3,7.7-3h107c3.1,0,5.7,1,7.7,3c2,2,3,4.6,3,7.7
		L301.7,397.5L301.7,397.5L301.7,397.5z M301.7,287.9c0,3.1-1,5.7-3,7.7c-2,2-4.6,3-7.7,3H184c-3.1,0-5.7-1-7.7-3c-2-2-3-4.6-3-7.7
		v-64.2c0-3.1,1-5.7,3-7.7c2-2,4.6-3,7.7-3h107c3.1,0,5.7,1,7.7,3c2,2,3,4.6,3,7.7L301.7,287.9L301.7,287.9z M303.8,179.3
		c0,3.2-1,5.9-3.1,7.9c-2.1,2.1-4.7,3.1-7.9,3.1H182.3c-3.2,0-5.9-1-7.9-3.1c-2.1-2.1-3.1-4.7-3.1-7.9V113c0-3.2,1-5.9,3.1-7.9
		c2.1-2.1,4.7-3.1,7.9-3.1h110.5c3.2,0,5.9,1,7.9,3.1c2.1,2.1,3.1,4.7,3.1,7.9L303.8,179.3L303.8,179.3z M449.2,398.2
		c0,3.2-1,5.8-3.1,7.8c-2.1,2-4.7,3.1-7.8,3.1H329.2c-3.2,0-5.8-1-7.8-3.1c-2-2-3.1-4.7-3.1-7.8v-65.5c0-3.2,1-5.8,3.1-7.8
		c2-2.1,4.7-3.1,7.8-3.1h109.1c3.2,0,5.8,1,7.8,3.1c2,2,3.1,4.6,3.1,7.8V398.2z M449.6,288.7c0,3.2-1,5.8-3.1,7.9
		c-2.1,2.1-4.7,3.1-7.9,3.1H328.8c-3.2,0-5.8-1-7.9-3.1c-2.1-2.1-3.1-4.7-3.1-7.9v-65.9c0-3.2,1-5.8,3.1-7.9
		c2.1-2.1,4.7-3.1,7.9-3.1h109.8c3.2,0,5.8,1,7.9,3.1c2.1,2.1,3.1,4.7,3.1,7.9V288.7z M449.7,179.2c0,3.2-1,5.8-3.1,7.9
		c-2.1,2.1-4.7,3.1-7.9,3.1H328.8c-3.2,0-5.8-1-7.9-3.1c-2.1-2.1-3.1-4.7-3.1-7.9v-66c0-3.2,1-5.8,3.1-7.9c2.1-2.1,4.7-3.1,7.9-3.1
		h109.9c3.2,0,5.8,1,7.9,3.1c2.1,2.1,3.1,4.7,3.1,7.9V179.2z M-31.9,74.1"/>
</g>
</svg>

<svg version="1.1" id="CRUD-Table"  viewBox="0 0 475.1 475.1" style="enable-background:new 0 0 475.1 475.1;" xml:space="preserve">
<g>
	<path d="M466.9,74.7c-8.4-9.1-19.3-9.7-21.3-9.8c-140.5-0.6-280.9-1.2-421.4-1.9c-3.1,0.8-9.5,3-15.4,8.8C3.4,77.2,1,82.9,0,85.9
		c0,105,0,209.9,0,314.9c0,3.3,0.4,11.8,6,20.2c4.8,7.3,10.9,10.9,13.8,12.4c141.7-0.2,283.4-0.3,425-0.5c1.7,0.2,11.9,1.2,20.6-6.3
		c9.3-8,9.6-19.3,9.6-20.9c0-103.3,0-206.6,0-310C475.1,93.3,474.7,83.2,466.9,74.7z M156.8,398.2c0,3.2-1,5.8-3.1,7.8
		c-2,2-4.7,3.1-7.8,3.1H36.8c-3.2,0-5.8-1-7.8-3.1c-2-2-3.1-4.7-3.1-7.8v-65.5c0-3.2,1-5.8,3.1-7.8c2-2.1,4.7-3.1,7.8-3.1h109.1
		c3.2,0,5.8,1,7.8,3.1c2,2,3.1,4.6,3.1,7.8L156.8,398.2L156.8,398.2z M157.2,288.7c0,3.2-1,5.8-3.1,7.9c-2.1,2.1-4.7,3.1-7.9,3.1
		H36.5c-3.2,0-5.8-1-7.9-3.1c-2.1-2.1-3.1-4.7-3.1-7.9v-65.9c0-3.2,1-5.8,3.1-7.9c2.1-2.1,4.7-3.1,7.9-3.1h109.8
		c3.2,0,5.8,1,7.9,3.1c2.1,2.1,3.1,4.7,3.1,7.9L157.2,288.7L157.2,288.7z M157.3,179.2c0,3.2-1,5.8-3.1,7.9
		c-2.1,2.1-4.7,3.1-7.9,3.1H36.4c-3.2,0-5.8-1-7.9-3.1c-2.1-2.1-3.1-4.7-3.1-7.9v-66c0-3.2,1-5.8,3.1-7.9c2.1-2.1,4.7-3.1,7.9-3.1
		h109.9c3.2,0,5.8,1,7.9,3.1c2.1,2.1,3.1,4.7,3.1,7.9L157.3,179.2L157.3,179.2z M301.7,397.5c0,3.1-1,5.7-3,7.7c-2,2-4.6,3-7.7,3
		H184c-3.1,0-5.7-1-7.7-3c-2-2-3-4.6-3-7.7v-64.2c0-3.1,1-5.7,3-7.7c2-2,4.6-3,7.7-3h107c3.1,0,5.7,1,7.7,3c2,2,3,4.6,3,7.7
		L301.7,397.5L301.7,397.5L301.7,397.5z M301.7,287.9c0,3.1-1,5.7-3,7.7c-2,2-4.6,3-7.7,3H184c-3.1,0-5.7-1-7.7-3c-2-2-3-4.6-3-7.7
		v-64.2c0-3.1,1-5.7,3-7.7c2-2,4.6-3,7.7-3h107c3.1,0,5.7,1,7.7,3c2,2,3,4.6,3,7.7L301.7,287.9L301.7,287.9z M303.8,179.3
		c0,3.2-1,5.9-3.1,7.9c-2.1,2.1-4.7,3.1-7.9,3.1H182.3c-3.2,0-5.9-1-7.9-3.1c-2.1-2.1-3.1-4.7-3.1-7.9V113c0-3.2,1-5.9,3.1-7.9
		c2.1-2.1,4.7-3.1,7.9-3.1h110.5c3.2,0,5.9,1,7.9,3.1c2.1,2.1,3.1,4.7,3.1,7.9L303.8,179.3L303.8,179.3z M449.2,398.2
		c0,3.2-1,5.8-3.1,7.8c-2.1,2-4.7,3.1-7.8,3.1H329.2c-3.2,0-5.8-1-7.8-3.1c-2-2-3.1-4.7-3.1-7.8v-65.5c0-3.2,1-5.8,3.1-7.8
		c2-2.1,4.7-3.1,7.8-3.1h109.1c3.2,0,5.8,1,7.8,3.1c2,2,3.1,4.6,3.1,7.8V398.2z M449.6,288.7c0,3.2-1,5.8-3.1,7.9
		c-2.1,2.1-4.7,3.1-7.9,3.1H328.8c-3.2,0-5.8-1-7.9-3.1c-2.1-2.1-3.1-4.7-3.1-7.9v-65.9c0-3.2,1-5.8,3.1-7.9
		c2.1-2.1,4.7-3.1,7.9-3.1h109.8c3.2,0,5.8,1,7.9,3.1c2.1,2.1,3.1,4.7,3.1,7.9V288.7z M449.7,179.2c0,3.2-1,5.8-3.1,7.9
		c-2.1,2.1-4.7,3.1-7.9,3.1H328.8c-3.2,0-5.8-1-7.9-3.1c-2.1-2.1-3.1-4.7-3.1-7.9v-66c0-3.2,1-5.8,3.1-7.9c2.1-2.1,4.7-3.1,7.9-3.1
		h109.9c3.2,0,5.8,1,7.9,3.1c2.1,2.1,3.1,4.7,3.1,7.9V179.2z M-31.9,74.1"/>
</g>
</svg>

<svg version="1.1" id="charts" viewBox="0 0 512 512" style="enable-background:new 0 0 512 512;" xml:space="preserve">
<g>
	<g>
		<path d="M488.399,492h-21.933V173.536c0-14.823-12.06-26.882-26.882-26.882H390.56c-14.823,0-26.882,12.06-26.882,26.882V492
			h-55.692V317.825c0-14.823-12.059-26.882-26.882-26.882H232.08c-14.823,0-26.882,12.06-26.882,26.882V492h-55.692v-90.204
			c0-14.823-12.06-26.882-26.882-26.882H73.599c-14.823,0-26.882,12.06-26.882,26.882V492H23.601c-5.523,0-10,4.477-10,10
			s4.477,10,10,10h464.798c5.523,0,10-4.477,10-10S493.922,492,488.399,492z M129.504,492H66.716v-90.204
			c0-3.795,3.087-6.882,6.882-6.882h49.024c3.795,0,6.882,3.087,6.882,6.882V492z M287.985,492h-62.788V317.825
			c0-3.795,3.087-6.882,6.882-6.882h49.024c3.794,0,6.882,3.087,6.882,6.882V492z M446.466,492h-62.788V173.536
			c0-3.795,3.087-6.882,6.882-6.882h49.024c3.795,0,6.882,3.087,6.882,6.882V492z"/>
	</g>
</g>
<g>
	<g>
		<path d="M466.442,10.516c0.14-2.729-0.82-5.504-2.904-7.588c-2.084-2.084-4.859-3.045-7.588-2.904
			C455.789,0.017,455.63,0,455.466,0h-60.5c-5.523,0-10,4.477-10,10s4.477,10,10,10h37.357l-98.857,98.858l-37.28-37.28
			c-1.875-1.875-4.419-2.929-7.071-2.929c-2.652,0-5.196,1.054-7.071,2.929l-179.769,179.77c-3.905,3.905-3.905,10.237,0,14.143
			c1.953,1.951,4.512,2.927,7.071,2.927s5.119-0.976,7.071-2.929L289.115,102.79l37.28,37.28c3.905,3.905,10.237,3.905,14.143,0
			L446.466,34.143v33.81c0,5.523,4.477,10,10,10s10-4.477,10-10V11C466.466,10.837,466.449,10.678,466.442,10.516z"/>
	</g>
</g>
<g>
	<g>
		<circle cx="75.64" cy="303.31" r="10"/>
	</g>
</g>
<g>
</g>
<g>
</g>
<g>
</g>
<g>
</g>
<g>
</g>
<g>
</g>
<g>
</g>
<g>
</g>
<g>
</g>
<g>
</g>
<g>
</g>
<g>
</g>
<g>
</g>
<g>
</g>
<g>
</g>
</svg>
<svg version="1.1" id="dashboard" viewBox="0 0 512.106 512.106" style="enable-background:new 0 0 512.106 512.106;" xml:space="preserve">
<g transform="translate(-1)">
	<g>
		<g>
			<path d="M128.686,37.216c-4.761-4.067-11.789-4.012-16.486,0.128L77.853,68.081v-4.028c0-4.713-3.82-8.533-8.533-8.533
				s-8.533,3.82-8.533,8.533v19.311L46.561,96.096c-3.459,3.155-3.73,8.508-0.607,11.997s8.473,3.809,11.99,0.718l62.575-56.013
				l62.575,56.013c2.266,2.067,5.468,2.759,8.385,1.812c2.918-0.947,5.102-3.387,5.722-6.392c0.62-3.004-0.42-6.11-2.724-8.135
				L128.686,37.216z"/>
			<path d="M171.72,119.52c-4.713,0-8.533,3.82-8.533,8.533v59.733H77.853v-59.733c0-4.713-3.82-8.533-8.533-8.533
				s-8.533,3.82-8.533,8.533v65.152c0.084,6.515,5.432,11.729,11.947,11.648h95.573c6.519,0.066,11.862-5.155,11.947-11.674v-65.126
				C180.253,123.34,176.432,119.52,171.72,119.52z"/>
			<path d="M120.52,221.92c-32.99,0-59.733,26.744-59.733,59.733s26.744,59.733,59.733,59.733s59.733-26.744,59.733-59.733
				C180.215,248.679,153.494,221.957,120.52,221.92z M77.853,281.653c0.026-20.268,14.281-37.731,34.133-41.813v36.975
				L80.413,295.75C78.76,291.232,77.894,286.464,77.853,281.653z M89.207,310.382l29.99-17.994l24.815,24.815
				C126.579,328.833,103.257,325.93,89.207,310.382z M156.078,305.137l-27.025-27.017V239.84
				c13.892,2.815,25.474,12.357,30.895,25.454C165.368,278.391,163.918,293.327,156.078,305.137z"/>
			<path d="M461.853,153.653v-29.21c-0.005-7.43-6.027-13.452-13.457-13.457H424.11c-7.43,0.005-13.452,6.027-13.457,13.457v29.21
				h-17.067v-53.504c-0.009-8.149-6.613-14.753-14.763-14.763h-21.675C349,85.396,342.396,92,342.386,100.149v53.504H325.32V59.786
				c0-9.426-7.641-17.067-17.067-17.067h-17.067c-9.426,0-17.067,7.641-17.067,17.067v93.867h-8.533
				c-4.713,0-8.533-3.821-8.533-8.533V42.72c0-4.713-3.821-8.533-8.533-8.533s-8.533,3.82-8.533,8.533v102.4
				c0,14.138,11.461,25.6,25.6,25.6h196.267c4.713,0,8.533-3.82,8.533-8.533S466.566,153.653,461.853,153.653z M308.253,153.653
				h-17.067V59.786h17.067V153.653z M376.52,153.653h-17.067v-51.2h17.067V153.653z M444.786,153.653H427.72v-25.6h17.067V153.653z"
				/>
			<path d="M461.853,324.32H265.586c-4.713,0-8.533-3.82-8.533-8.533v-13.534l28.1-28.1c3.371-3.236,8.695-3.236,12.066,0
				l10.001,10.001c9.997,9.994,26.202,9.994,36.198,0l35.601-35.601c3.371-3.236,8.695-3.236,12.066,0l10.001,10.01
				c10.008,9.966,26.19,9.966,36.198,0l30.601-30.601c3.234-3.348,3.188-8.671-0.104-11.962c-3.292-3.292-8.614-3.338-11.962-0.104
				l-30.601,30.592c-3.332,3.331-8.734,3.331-12.066,0l-10.001-10.001c-10.13-9.668-26.069-9.668-36.198,0l-35.601,35.601
				c-3.332,3.331-8.734,3.331-12.066,0l-9.992-10.001c-10.132-9.669-26.075-9.669-36.207,0l-16.034,16.034v-64.734
				c0-4.713-3.821-8.533-8.533-8.533s-8.533,3.821-8.533,8.533v102.4c0,14.138,11.461,25.6,25.6,25.6h196.267
				c4.713,0,8.533-3.821,8.533-8.533C470.386,328.14,466.566,324.32,461.853,324.32z"/>
			<path d="M513.053,396.46V47.37c1.187-24.814-17.863-45.94-42.667-47.317H43.72C18.916,1.431-0.134,22.557,1.053,47.37v349.09
				c-1.191,24.817,17.859,45.948,42.667,47.326h136.533v17.067H146.12c-18.851,0-34.133,15.282-34.133,34.133v8.533
				c0,4.713,3.82,8.533,8.533,8.533h273.067c4.713,0,8.533-3.82,8.533-8.533v-8.533c0-18.851-15.282-34.133-34.133-34.133h-34.133
				v-17.067h136.533C495.194,442.409,514.244,421.277,513.053,396.46z M367.986,477.92c9.426,0,17.067,7.641,17.067,17.067h-256
				c0-9.426,7.641-17.067,17.067-17.067H367.986z M197.32,460.853v-17.067h119.467v17.067H197.32z M470.386,426.72H43.72
				c-15.361-1.41-26.754-14.877-25.6-30.259V375.52h477.867v20.941C497.141,411.843,485.748,425.31,470.386,426.72z M495.986,47.37
				v311.083H18.12V47.37c-1.154-15.381,10.24-28.845,25.6-30.251h426.667C485.746,18.525,497.141,31.989,495.986,47.37z"/>
		</g>
	</g>
</g>
<g>
</g>
<g>
</g>
<g>
</g>
<g>
</g>
<g>
</g>
<g>
</g>
<g>
</g>
<g>
</g>
<g>
</g>
<g>
</g>
<g>
</g>
<g>
</g>
<g>
</g>
<g>
</g>
<g>
</g>
</svg>
<svg version="1.1" id="language-Switch" viewBox="0 0 488 488" style="enable-background:new 0 0 488 488;" xml:space="preserve">
<g transform="translate(0 -540.36)">
	<g>
		<g>
			<path d="M213.769,651.94L213.769,651.94c-5.499,0-9.999,4.501-9.999,10.003v51.216h-10.498c0-0.2,0-0.5,0-0.7c0-0.1,0-0.2,0-0.2
				c-3.5-34.911-36.995-63.02-71.79-60.219c-5.499,0.4-9.599,5.302-9.199,10.803c0.4,5.502,5.299,9.603,10.798,9.203
				c23.597-1.901,47.193,17.606,50.093,41.213H71.09c-2.8,0-5.499,1.2-7.399,3.301c-1.9,2.101-2.8,4.902-2.5,7.702
				c1.7,17.005,10.698,33.211,24.596,44.614c12.098,9.803,26.796,15.205,41.294,15.205c2,0,4.099-0.1,6.099-0.3
				c27.996-3.001,51.193-24.308,58.092-50.416h12.498v40.513c0,5.502,4.499,10.003,9.999,10.003c5.499,0,9.999-4.501,9.999-10.003
				V662.244C223.768,656.442,219.269,651.94,213.769,651.94z M131.081,763.776c-10.998,1.2-22.897-2.601-32.695-10.503
				c-6.699-5.402-11.798-12.404-14.698-20.006h86.688C164.176,749.271,148.979,761.875,131.081,763.776z"/>
			<path d="M405.742,869.409l-50.293-99.432c-1.7-3.401-5.199-5.502-8.899-5.502c-3.799,0-7.199,2.101-8.899,5.502L286.559,871.71
				c-2.5,4.902-0.5,10.903,4.399,13.404c1.4,0.7,3,1.1,4.499,1.1c3.699,0,7.199-2.001,8.899-5.502l17.597-35.011h49.393
				l16.598,32.81c2.5,4.902,8.499,6.902,13.398,4.401C406.242,880.313,408.241,874.311,405.742,869.409L405.742,869.409z
				 M331.952,825.595l14.598-29.009l14.698,29.009H331.952z"/>
			<path d="M486.33,812.991c-4.799-31.31-20.097-60.319-43.094-81.826c-43.494-40.613-106.985-49.516-159.377-23.808
				c-7.899-71.023-68.09-126.54-141.08-126.54c-38.094,0-73.889,14.705-100.885,41.513C14.898,649.139,0,684.951,0,723.163
				c0,38.112,14.898,73.924,41.894,100.832c26.896,26.809,62.791,41.513,100.885,41.513c22.097,0,43.094-5.102,61.791-14.205
				c6.399,58.118,48.093,107.334,105.685,122.539h0.1c11.498,2.801,22.997,4.201,34.395,4.201
				c51.293,0,99.986-27.709,125.482-74.124C485.53,876.412,491.129,844.101,486.33,812.991z M142.78,845.502
				c-67.59,0-122.682-54.817-122.682-122.339c0-67.421,55.092-122.339,122.682-122.339c67.29,0,121.982,54.917,121.982,122.339
				S210.07,845.502,142.78,845.502z M452.835,894.317c-26.796,48.816-83.288,73.523-137.48,60.119
				c-52.492-13.904-89.587-60.619-91.487-114.436c35.195-24.608,58.692-64.721,60.791-110.335
				c46.493-27.209,105.385-20.907,144.979,16.205C470.432,783.882,479.931,844.902,452.835,894.317z"/>
			<path d="M193.172,966.24v-0.1c-0.1-0.4-0.2-0.8-0.3-1.1c0,0,0,0,0-0.1c-0.1-0.3-0.2-0.7-0.4-1c0-0.1-0.1-0.2-0.2-0.3
				c-0.1-0.2-0.3-0.5-0.4-0.7c-0.1-0.1-0.1-0.2-0.2-0.3c-0.2-0.3-0.4-0.6-0.6-0.9c-0.2-0.3-0.5-0.6-0.8-0.9
				c-0.1-0.1-0.1-0.1-0.2-0.2c-0.2-0.2-0.5-0.4-0.7-0.6c-0.1-0.1-0.2-0.1-0.3-0.2c-0.2-0.2-0.5-0.3-0.7-0.5
				c-0.1-0.1-0.2-0.1-0.3-0.2c-0.3-0.2-0.7-0.4-1-0.5l-51.093-20.607c-5.099-2.101-10.898,0.4-12.998,5.502s0.4,10.903,5.499,13.004
				l34.195,13.804c-18.797,10.103-41.494,10.903-61.191,1.5h-0.1c-24.896-11.504-40.594-36.912-39.994-64.921
				c0.1-5.502-4.199-10.103-9.799-10.203c-5.499-0.1-10.099,4.201-10.199,9.803c-0.9,35.911,19.397,68.622,51.493,83.527
				c11.998,5.702,24.796,8.503,37.595,8.503c10.898,0,21.797-2.101,32.095-6.102l-9.099,22.207c-2.1,5.102,0.4,11.004,5.499,13.004
				c1.2,0.5,2.5,0.7,3.799,0.7c3.899,0,7.699-2.301,9.299-6.202l20.597-50.516c0-0.1,0.1-0.2,0.1-0.3c-0.1-0.1-0.1-0.2,0-0.3
				c0.1-0.3,0.2-0.6,0.2-0.8c0-0.1,0-0.2,0.1-0.3c0.1-0.4,0.1-0.8,0.2-1.2c0-0.4,0-0.7,0-1.1c0-0.1,0-0.2,0-0.3
				c0-0.3-0.1-0.6-0.1-0.9C193.172,966.34,193.172,966.34,193.172,966.24z"/>
			<path d="M295.458,602.625v0.1c0.1,0.4,0.2,0.8,0.3,1.1c0,0,0,0,0,0.1c0.1,0.3,0.2,0.7,0.4,1c0,0.1,0.1,0.2,0.2,0.3
				c0.1,0.2,0.3,0.5,0.4,0.7c0.1,0.1,0.1,0.2,0.2,0.3c0.2,0.3,0.4,0.6,0.6,0.9c0.2,0.3,0.5,0.6,0.8,0.9c0.1,0.1,0.1,0.1,0.2,0.2
				c0.2,0.2,0.5,0.4,0.7,0.6c0.1,0.1,0.2,0.1,0.3,0.2c0.2,0.2,0.5,0.3,0.7,0.5c0.1,0.1,0.2,0.1,0.3,0.2c0.3,0.2,0.7,0.4,1,0.5
				l51.093,20.607c5.099,2.101,10.898-0.4,12.998-5.502c2.1-5.102-0.4-10.903-5.499-13.004l-34.195-13.804
				c18.797-10.103,41.494-10.903,61.191-1.5h0.1c24.896,11.504,40.594,36.912,39.994,64.921c-0.1,5.502,4.199,10.103,9.799,10.203
				c0.1,0,0.2,0,0.2,0c5.399,0,9.899-4.301,9.999-9.803c0.8-36.011-19.397-68.822-51.593-83.627l0,0
				c-22.297-10.603-47.393-11.104-69.59-2.401l9.099-22.207c2.1-5.102-0.4-11.003-5.499-13.004
				c-5.099-2.101-10.998,0.4-12.998,5.502l-20.597,50.516c0,0.1-0.1,0.2-0.1,0.3s-0.1,0.3-0.1,0.4c-0.1,0.3-0.2,0.6-0.2,0.8
				c0,0.1,0,0.2-0.1,0.3c-0.1,0.4-0.1,0.8-0.2,1.2c0,0.4,0,0.7,0,1.1c0,0.1,0,0.2,0,0.3c0,0.3,0.1,0.6,0.1,0.9
				C295.458,602.525,295.458,602.525,295.458,602.625z"/>
		</g>
	</g>
</g>
<g>
</g>
<g>
</g>
<g>
</g>
<g>
</g>
<g>
</g>
<g>
</g>
<g>
</g>
<g>
</g>
<g>
</g>
<g>
</g>
<g>
</g>
<g>
</g>
<g>
</g>
<g>
</g>
<g>
</g>
</svg>

<svg version="1.1" id="shopping-Cart" xmlns="http://www.w3.org/2000/svg" xmlns:xlink="http://www.w3.org/1999/xlink" x="0px" y="0px"
	 viewBox="0 0 511.999 511.999" style="enable-background:new 0 0 511.999 511.999;" xml:space="preserve">
<g>
	<g>
		<path d="M214.685,402.828c-24.829,0-45.029,20.2-45.029,45.029c0,24.829,20.2,45.029,45.029,45.029s45.029-20.2,45.029-45.029
			C259.713,423.028,239.513,402.828,214.685,402.828z M214.685,467.742c-10.966,0-19.887-8.922-19.887-19.887
			c0-10.966,8.922-19.887,19.887-19.887s19.887,8.922,19.887,19.887C234.572,458.822,225.65,467.742,214.685,467.742z"/>
	</g>
</g>
<g>
	<g>
		<path d="M372.63,402.828c-24.829,0-45.029,20.2-45.029,45.029c0,24.829,20.2,45.029,45.029,45.029s45.029-20.2,45.029-45.029
			C417.658,423.028,397.458,402.828,372.63,402.828z M372.63,467.742c-10.966,0-19.887-8.922-19.887-19.887
			c0-10.966,8.922-19.887,19.887-19.887c10.966,0,19.887,8.922,19.887,19.887C392.517,458.822,383.595,467.742,372.63,467.742z"/>
	</g>
</g>
<g>
	<g>
		<path d="M383.716,165.755H203.567c-6.943,0-12.571,5.628-12.571,12.571c0,6.943,5.629,12.571,12.571,12.571h180.149
			c6.943,0,12.571-5.628,12.571-12.571C396.287,171.382,390.659,165.755,383.716,165.755z"/>
	</g>
</g>
<g>
	<g>
		<path d="M373.911,231.035H213.373c-6.943,0-12.571,5.628-12.571,12.571s5.628,12.571,12.571,12.571h160.537
			c6.943,0,12.571-5.628,12.571-12.571C386.481,236.664,380.853,231.035,373.911,231.035z"/>
	</g>
</g>
<g>
	<g>
		<path d="M506.341,109.744c-4.794-5.884-11.898-9.258-19.489-9.258H95.278L87.37,62.097c-1.651-8.008-7.113-14.732-14.614-17.989
			l-55.177-23.95c-6.37-2.767-13.773,0.156-16.536,6.524c-2.766,6.37,0.157,13.774,6.524,16.537L62.745,67.17l60.826,295.261
			c2.396,11.628,12.752,20.068,24.625,20.068h301.166c6.943,0,12.571-5.628,12.571-12.571c0-6.943-5.628-12.571-12.571-12.571
			H148.197l-7.399-35.916H451.69c11.872,0,22.229-8.44,24.624-20.068l35.163-170.675
			C513.008,123.266,511.136,115.627,506.341,109.744z M451.69,296.301H135.619l-35.161-170.674l386.393,0.001L451.69,296.301z"/>
	</g>
</g>
<g>
</g>
<g>
</g>
<g>
</g>
<g>
</g>
<g>
</g>
<g>
</g>
<g>
</g>
<g>
</g>
<g>
</g>
<g>
</g>
<g>
</g>
<g>
</g>
<g>
</g>
<g>
</g>
<g>
</g>
</svg>


<svg height="569pt" id="spreadsheets" viewBox="-66 0 569 569.286" width="569pt"><path d="m.109375 66.382812v493.132813c0 5.238281 4.246094 9.484375 9.484375 9.484375h360.367188c5.234374 0 9.480468-4.246094 9.480468-9.484375v-398.296875c0-.210938-.101562-.390625-.121094-.597656-.046874-.832032-.210937-1.652344-.484374-2.4375-.105469-.304688-.179688-.597656-.3125-.894532-.460938-1.03125-1.101563-1.972656-1.898438-2.777343l-94.832031-94.832031c-.804688-.800782-1.75-1.441407-2.789063-1.898438-.285156-.121094-.574218-.222656-.871094-.3125-.792968-.273438-1.617187-.4375-2.457031-.492188-.160156.027344-.347656-.074218-.546875-.074218h-265.535156c-5.238281 0-9.484375 4.242187-9.484375 9.480468zm346.957031 85.351563h-62.457031v-62.457031zm-327.992187-75.867187h246.570312v85.351562c0 5.234375 4.246094 9.480469 9.480469 9.480469h85.351562v379.335937h-341.402343zm0 0"/><path d="m398.410156 493.132812v18.964844h28.449219c5.238281 0 9.484375-4.242187 9.484375-9.480468v-493.132813c0-5.238281-4.246094-9.484375-9.484375-9.484375h-360.367187c-5.238282 0-9.484376 4.246094-9.484376 9.484375v28.449219h18.96875v-18.96875h341.398438v474.167968zm0 0"/><path d="m75.976562 189.667969h227.597657v18.964843h-227.597657zm0 0"/><path d="m75.976562 132.765625h75.867188v18.96875h-75.867188zm0 0"/><path d="m75.976562 246.566406h151.734376v18.96875h-151.734376zm0 0"/><path d="m246.675781 246.566406h56.898438v18.96875h-56.898438zm0 0"/><path d="m75.976562 303.464844h227.597657v18.96875h-227.597657zm0 0"/><path d="m75.976562 417.265625h227.597657v18.96875h-227.597657zm0 0"/><path d="m161.324219 360.367188h142.25v18.964843h-142.25zm0 0"/><path d="m75.976562 360.367188h66.382813v18.964843h-66.382813zm0 0"/><path d="m75.976562 474.167969h37.933594v18.964843h-37.933594zm0 0"/><path d="m132.875 474.167969h170.699219v18.964843h-170.699219zm0 0"/></svg>
<svg class="icon" id="drag-Drop" height="512" viewBox="0 0 1024 1024" version="1.1"><path d="M192.5 477.5c12.2 0 22-9.8 22-22v-58c0-12.2-9.9-22-22-22s-22 9.9-22 22v58c0 12.2 9.9 22 22 22z m0-174c12.2 0 22-9.9 22-22v-58c0-12.1-9.9-22-22-22s-22 9.9-22 22v58c0 12.2 9.9 22 22 22z m0-174c12.2 0 22-9.9 22-22v-7.3h7.3c12.1 0 22-9.9 22-22 0-12.2-9.9-22-22-22h-29.4c-12.1 0-22 9.9-22 22v29.3c0.1 12.2 10 22 22.1 22zM490 100.2h53.7c12.2 0 22-9.9 22-22 0-12.2-9.8-22-22-22H490c-12.1 0-22 9.9-22 22s9.9 22 22 22z m161 0h53.6c12.2 0 22-9.9 22-22 0-12.2-9.9-22-22-22H651c-12.1 0-22 9.9-22 22s9.8 22 22 22z m-321.9 0h53.7c12.2 0 22-9.9 22-22 0-12.2-9.8-22-22-22h-53.7c-12.1 0-22 9.9-22 22s9.9 22 22 22z m536.4-44h-53.6c-12.1 0-22 9.9-22 22s9.9 22 22 22h53.6c12.2 0 22-9.9 22-22 0-12.2-9.8-22-22-22z m136.7 0h-29.3c-12.1 0-22 9.9-22 22s9.9 22 22 22h7.3v7.3c0 12.2 9.9 22 22 22 12.2 0 22-9.9 22-22V78.2c0-12.2-9.9-22-22-22z m0 493.3c-12.2 0-22 9.9-22 22v58c0 12.2 9.9 22 22 22 12.2 0 22-9.8 22-22v-58c0-12.2-9.9-22-22-22z m0-174c-12.2 0-22 9.9-22 22v58c0 12.2 9.9 22 22 22 12.2 0 22-9.9 22-22v-58c0-12.2-9.9-22-22-22z m0-174c-12.2 0-22 9.9-22 22v58c0 12.2 9.9 22 22 22 12.2 0 22-9.8 22-22v-58c0-12.1-9.9-22-22-22z m0 521.9c-12.2 0-22 9.9-22 22v7.3h-7.3c-12.1 0-22 9.8-22 22s9.9 22 22 22h29.3c12.2 0 22-9.9 22-22v-29.3c0-12.1-9.9-22-22-22z m-136.7 29.4h-53.6c-12.1 0-22 9.8-22 22s9.9 22 22 22h53.6c12.2 0 22-9.9 22-22 0-12.2-9.8-22-22-22z m-160.9 0H651c-12.1 0-22 9.8-22 22s9.9 22 22 22h53.6c12.2 0 22-9.9 22-22 0-12.2-9.8-22-22-22zM536.3 531.4H38.8c-20.3 0-36.7 16.4-36.7 36.7v359.6c0 20.3 16.4 36.7 36.7 36.7h497.5c20.3 0 36.7-16.4 36.7-36.7V568.1c0-20.3-16.4-36.7-36.7-36.7z m-36.6 359.5H75.5V604.8h424.1l0.1 286.1z m329.5-459.1c1.2-0.2 2.4-0.4 3.6-0.8 5.7-2.1 9.8-7.2 10.6-13.3L866 234.5c0.6-5.1-1.2-10.3-5-13.8-3.8-3.6-9-5.1-14.2-4.1l-181.3 35.1c-6 1.2-10.8 5.6-12.5 11.5-1.7 5.9 0.1 12.2 4.5 16.4l55.6 51.9-124.5 133.2c-12.2 13.1-11.5 33.6 1.6 45.9 7.3 6.8 16.9 9.6 26.1 8.5 7.4-0.9 14.4-4.3 19.8-10.1l124.5-133.4 55.6 51.9c3.6 3.4 8.3 4.9 13 4.3z" fill="" /></svg>
<svg version="1.1" id="feedback-Forms"  viewBox="0 0 480.8 480.8" style="enable-background:new 0 0 480.8 480.8;" xml:space="preserve">
<g>
	<g>
		<path d="M448.784,48h-160V32c0-17.6-14.4-32-32-32h-224c-17.6,0-32,14.4-32,32v176c0,88,84,88,112,88c4.8,0,8-3.2,8-8s-3.2-8-8-8
			c-17.6,0-32-14.4-32-32c0-0.8,0-2.4,0-3.2c2.4-16.8,16.8-28.8,33.6-28.8h110.4v16h-72c-4.8,0-8,3.2-8,8c0,18.4,7.2,36,19.2,48.8
			c-2.4,8-3.2,15.2-3.2,23.2c0,32,19.2,60.8,48,73.6c0,4.8-2.4,14.4-24,14.4c-22.4,0-40,17.6-40,40v40h16v-40
			c0-12.8,9.6-23.2,22.4-24l39.2,19.2c3.2,1.6,7.2,3.2,10.4,4V480h16v-40.8c4-0.8,7.2-1.6,10.4-3.2l39.2-19.2
			c12.8,0.8,22.4,11.2,22.4,24v40h16v-40c0-22.4-17.6-40-40-40c-21.6,0-24-9.6-24-14.4c30.4-12.8,48.8-43.2,48-76c0-1.6,0-4.8,0-5.6
			c0-11.2-2.4-22.4-8-32h53.6c16.8,0,31.2,12,33.6,28.8c1.6,17.6-11.2,33.6-28.8,35.2c-0.8,0-2.4,0-3.2,0c-4.8,0-8,3.2-8,8
			s3.2,8,8,8c28,0,112,0,112-88V80C480.784,62.4,466.384,48,448.784,48z M114.384,200c-24.8,0-46.4,18.4-49.6,43.2
			c-0.8,12,2.4,24,9.6,33.6c-39.2-8-57.6-29.6-57.6-68.8V32c0-8.8,7.2-16,16-16h224c8.8,0,16,7.2,16,16v152c0,8.8-7.2,16-16,16
			H114.384z M161.584,248h87.2c28,0,51.2,20.8,55.2,48h-87.2C188.784,296,165.584,275.2,161.584,248z M262.384,372
			c-3.2,0.8-5.6,4-5.6,7.2v4.8c-0.8,11.2,5.6,22.4,16,27.2l-20.8,10.4c-7.2,3.2-16,3.2-23.2,0l-20-10.4c10.4-4.8,16.8-16,16-27.2v-4
			c0-3.2-2.4-6.4-5.6-7.2c-25.6-9.6-42.4-33.6-42.4-60.8c0-4,0-8,0.8-11.2c11.2,7.2,24.8,11.2,39.2,11.2h88
			C304.784,339.2,287.984,363.2,262.384,372z M464.784,264c0,39.2-18.4,60.8-57.6,68.8c7.2-9.6,10.4-21.6,9.6-33.6
			c-3.2-24.8-24-43.2-49.6-43.2h-64.8c-13.6-15.2-32.8-24-53.6-24h-8v-16h16c17.6,0,32-14.4,32-32V64h160c8.8,0,16,7.2,16,16V264z"
			/>
	</g>
</g>
<g>
	<g>
		<path d="M184.784,88h-8c-4.8,0-8-3.2-8-8V56c0-13.6-10.4-24-24-24c-13.6,0-24,10.4-24,24v24c0,4.8-3.2,8-8,8c0-4.8-3.2-8-8-8h-32
			c-4.8,0-8,3.2-8,8v88c0,4.8,3.2,8,8,8h32c4.8,0,8-3.2,8-8h72c13.6,0,24-10.4,24-24v-40C208.784,98.4,198.384,88,184.784,88z
			 M96.784,168h-16V96h16V168z M192.784,152c0,4.8-3.2,8-8,8h-72v-56c13.6,0,24-10.4,24-24V56c0-4.8,3.2-8,8-8s8,3.2,8,8v24
			c0,13.6,10.4,24,24,24h8c4.8,0,8,3.2,8,8V152z"/>
	</g>
</g>
<g>
	<g>
		<path d="M440.784,80h-32c-4.8,0-8,3.2-8,8h-72c-13.6,0-24,10.4-24,24v40c0,13.6,10.4,24,24,24h8c4.8,0,8,3.2,8,8v24
			c0,13.6,10.4,24,24,24c13.6,0,24-10.4,24-24v-24c0-4.8,3.2-8,8-8c0,4.8,3.2,8,8,8h32c4.8,0,8-3.2,8-8V88
			C448.784,83.2,445.584,80,440.784,80z M400.784,160c-13.6,0-24,10.4-24,24v24c0,4.8-3.2,8-8,8s-8-3.2-8-8v-24
			c0-13.6-10.4-24-24-24h-8c-4.8,0-8-3.2-8-8v-40c0-4.8,3.2-8,8-8h72V160z M432.784,168h-16V96h16V168z"/>
	</g>
</g>
<g>
	<g>
		<rect x="296.784" y="208" width="32" height="16"/>
	</g>
</g>
<g>
	<g>
		<polygon points="216.784,40 216.784,32 200.784,32 200.784,40 192.784,40 192.784,56 200.784,56 200.784,64 216.784,64 
			216.784,56 224.784,56 224.784,40 		"/>
	</g>
</g>
<g>
</g>
<g>
</g>
<g>
</g>
<g>
</g>
<g>
</g>
<g>
</g>
<g>
</g>
<g>
</g>
<g>
</g>
<g>
</g>
<g>
</g>
<g>
</g>
<g>
</g>
<g>
</g>
<g>
</g>
</svg>
</defs></svg>
